<svg xmlns="http://www.w3.org/2000/svg" color-interpolation-filters="sRGB" style="margin:auto" version="1.0" viewBox="0 0 340 250">
  <rect width="100%" height="100%" fill="#fff" class="background"/>
  <rect width="100%" height="100%" fill="url(#watermark)" class="watermarklayer"/>
  <g fill="#333" class="iconlinesvg-g iconlinesvg">
    <g class="tp-name">
      <g class="imagesvg" transform="translate(31.6279907 93.8596265)">
        <path fill="none" d="M0 0h51.5828903v48.7026175H0z" class="image-rect"/>
        <svg width="51.5828903" height="48.7026175" class="image-svg-svg primary" overflow="visible">
          <svg xmlns="http://www.w3.org/2000/svg" viewBox="0 0 98.5 93">
            <g fill-rule="evenodd">
              <path d="M98.12 48h.38v45h-31V64.91c14.03-.85 25.77-7.62 30.62-16.91zM31 0v28.09C17 28.94 5.23 35.71.38 45H0V0z"/>
              <path fill="#38761D" d="M45 33a59.71 59.71 0 0 1 15.5 2C43.28 39.64 31 51.77 31 66v27H0V65c.74-17.76 20.6-32 45-32z"/>
              <path fill="#38761D" d="M98.5 0v28c-.72 17.76-20.58 32-45 32A59.71 59.71 0 0 1 38 58c17.22-4.63 29.5-16.76 29.5-31V0z"/>
            </g>
          </svg>
        </svg>
      </g>
      <path d="M121.0647907 94.1101352h12.1824v47.8656h-12.1824v-6.048q-2.3328 3.1104-6.0912 4.8816-3.7584 1.7712-8.1648 1.7712-5.616 0-9.936-2.376t-6.7824-6.9984q-2.4624-4.6224-2.4624-11.016v-28.08h12.096v26.352q0 5.7024 2.8512 8.7696 2.8512 3.0672 7.776 3.0672 5.0112 0 7.8624-3.0672 2.8512-3.0672 2.8512-8.7696v-26.352Zm75.0064-.6912q8.8128 0 14.2128 5.4t5.4 15.0768v28.08h-12.096v-26.4384q0-5.616-2.8512-8.5968-2.8512-2.9808-7.776-2.9808-4.9248 0-7.8192 2.9808t-2.8944 8.5968v26.4384h-12.096v-26.4384q0-5.616-2.8512-8.5968-2.8512-2.9808-7.776-2.9808-5.0112 0-7.9056 2.9808t-2.8944 8.5968v26.4384h-12.096v-47.8656h12.096v5.7888q2.3328-3.024 6.0048-4.752 3.672-1.728 8.0784-1.728 5.616 0 10.0224 2.376t6.8256 6.7824q2.3328-4.1472 6.7824-6.6528 4.4496-2.5056 9.6336-2.5056Zm56.9936.6912h12.1824v47.8656h-12.1824v-6.048q-2.3328 3.1104-6.0912 4.8816-3.7584 1.7712-8.1648 1.7712-5.616 0-9.936-2.376t-6.7824-6.9984q-2.4624-4.6224-2.4624-11.016v-28.08h12.096v26.352q0 5.7024 2.8512 8.7696 2.8512 3.0672 7.776 3.0672 5.0112 0 7.8624-3.0672 2.8512-3.0672 2.8512-8.7696v-26.352Zm36.472 48.6432q-5.8752 0-10.5408-2.1168t-7.3872-5.7456q-2.7216-3.6288-2.9808-8.0352h12.1824q.3456 2.7648 2.7216 4.5792t5.9184 1.8144q3.456 0 5.4-1.3824 1.944-1.3824 1.944-3.5424 0-2.3328-2.376-3.4992-2.376-1.1664-7.56-2.5488-5.3568-1.296-8.7696-2.6784-3.4128-1.3824-5.8752-4.2336-2.4624-2.8512-2.4624-7.6896 0-3.9744 2.2896-7.2576t6.5664-5.184q4.2768-1.9008 10.0656-1.9008 8.5536 0 13.6512 4.2768t5.616 11.5344h-11.5776q-.2592-2.8512-2.376-4.536-2.1168-1.6848-5.6592-1.6848-3.2832 0-5.0544 1.2096-1.7712 1.2096-1.7712 3.3696 0 2.4192 2.4192 3.672 2.4192 1.2528 7.5168 2.5488 5.184 1.296 8.5536 2.6784 3.3696 1.3824 5.832 4.2768 2.4624 2.8944 2.5488 7.6464 0 4.1472-2.2896 7.4304t-6.5664 5.1408q-4.2768 1.8576-9.9792 1.8576Z" data-gra="path-name"/>
    </g>
    <path d="M36.6279907 150.8793345h.1870117v1h-.1870117zm266.5570068 0h.1870117v1h-.1870117zm-256.6104638-4.411875.39 1.09-.05.02q-.45-.42-1.1-.67-.64-.26-1.41-.26-.73 0-1.35.24-.61.23-1.06.67-.44.44-.69 1.07-.24.64-.24 1.46 0 .89.23 1.67.24.78.7 1.35.46.56 1.16.89.69.32 1.62.32.33 0 .67-.07.33-.07.64-.2.3-.14.58-.34.27-.19.49-.45l.07.04-.47 1.2q-.44.17-.97.26t-1.07.09q-1.09 0-1.98-.31-.9-.32-1.55-.89-.65-.57-1.01-1.38-.36-.81-.36-1.79 0-.56.14-1.1.15-.53.42-1.02.28-.49.68-.89.41-.41.93-.71.51-.3 1.14-.47.62-.16 1.35-.16 1.13 0 2.1.34Zm5.55-.34q.98 0 1.81.32.83.32 1.43.89.6.58.94 1.39.34.81.34 1.79 0 .55-.12 1.09-.13.54-.38 1.02t-.61.89q-.37.41-.83.7-.47.3-1.03.46-.56.17-1.21.17-.98 0-1.81-.31-.83-.32-1.44-.89-.6-.57-.94-1.38-.34-.81-.34-1.79 0-.56.13-1.1.13-.53.38-1.02t.61-.89q.36-.41.82-.71.47-.3 1.04-.47.56-.16 1.21-.16Zm.34 8.19q.65 0 1.18-.23.54-.23.93-.68.39-.45.61-1.09.22-.64.22-1.45 0-.91-.21-1.68-.21-.77-.62-1.33-.41-.57-1.02-.89-.61-.32-1.43-.32-.65 0-1.19.24-.54.23-.93.67-.39.44-.6 1.07-.22.64-.22 1.46 0 .89.2 1.67.21.78.62 1.35.41.56 1.03.89.61.32 1.43.32Zm5.46-8.05h.37l6.04 6.42v-4.13q0-.49-.02-.87-.01-.37-.03-.64-.02-.27-.06-.45-.03-.19-.06-.31v-.02h1.04v.02q-.04.12-.07.31l-.05.45q-.02.27-.03.64-.01.38-.01.87v6.23h-.21l-6.04-6.42v4.01q0 .5.02.87.01.37.03.64l.05.45q.03.18.07.31v.02h-1.04v-.02q.03-.13.06-.31.04-.18.06-.45.02-.27.03-.64.02-.37.02-.87v-3.82q0-.49-.02-.87-.01-.37-.03-.64-.02-.27-.06-.45-.03-.19-.06-.31v-.02Zm12.45.24-.04 1.09h-.13q-.04-.13-.15-.3-.1-.17-.27-.32-.16-.15-.4-.25-.24-.1-.56-.1-.29 0-.51.09-.22.09-.37.24-.15.16-.23.38-.07.22-.07.48 0 .42.23.81.24.38.6.75.36.38.77.75.42.38.78.78.35.41.59.85t.24.95q0 .38-.13.77-.14.38-.41.69-.28.3-.71.49-.43.19-1.03.19-.34 0-.64-.06t-.55-.15q-.26-.09-.46-.2-.2-.1-.33-.19l.13-1.3h.15q.06.28.21.53t.36.44q.21.19.49.3.28.12.6.12.3 0 .54-.09.24-.1.41-.26.17-.16.26-.38t.09-.49q0-.37-.14-.68-.13-.31-.35-.59-.22-.29-.5-.55-.28-.26-.57-.53-.29-.27-.57-.55-.28-.28-.5-.6-.22-.32-.35-.68-.14-.37-.14-.81 0-.46.18-.83.18-.38.47-.64.3-.26.68-.4.37-.14.77-.14.29 0 .54.04.24.05.44.11.2.07.34.13.15.07.24.11Zm7.93 5.34v-3.29q0-.49-.01-.87-.01-.37-.04-.64-.02-.27-.05-.45-.03-.19-.06-.31v-.02h1.04v.02q-.04.12-.07.31-.03.18-.05.45-.02.27-.04.64-.01.38-.01.87v3.17q0 .84-.24 1.43t-.67.97q-.43.38-1.02.55-.6.17-1.31.17-.71 0-1.32-.16-.61-.17-1.07-.53-.45-.37-.71-.95-.26-.58-.26-1.42v-3.23q0-.49-.01-.87-.01-.37-.03-.64-.03-.27-.06-.45-.03-.19-.07-.31v-.02h1.41v.02q-.04.12-.07.31-.03.18-.05.45-.03.27-.04.64-.01.38-.01.87v3.29q0 .7.21 1.15.2.46.54.72.34.27.78.38.43.1.88.1t.89-.1q.43-.11.77-.38.33-.26.54-.72.21-.45.21-1.15Zm3.74-3.29v5.59q.7 0 1.28-.05.58-.06 1.01-.14.5-.08.92-.19l-.17.95q-.07-.01-.21-.01-.14-.01-.31-.02-.18 0-.37-.01h-.36q-.17 0-.3-.01h-2.72v-.02q.03-.13.07-.31.03-.18.05-.45.03-.27.04-.64.01-.37.01-.87v-3.82q0-.49-.01-.87-.01-.37-.04-.64-.02-.27-.05-.45-.04-.19-.07-.31v-.02h1.4v.02q-.03.12-.06.31-.03.18-.06.45-.02.27-.03.64-.02.38-.02.87Zm5.97 3.82v-5.6q-.69 0-1.25.06-.55.07-.96.14-.47.08-.84.19l.17-.95q.07.01.21.01.14.01.32.01.17.01.36.01.19.01.36.01h.3q.13.01.19.01h3.35q.06 0 .19-.01h.3q.17 0 .36-.01.19 0 .36-.01.18 0 .32-.01.14 0 .21-.01l.17.95q-.38-.11-.84-.19-.41-.07-.97-.14-.55-.06-1.24-.06v5.6q0 .5.01.87.02.37.04.64t.05.45q.03.18.07.31v.02h-1.4v-.02q.03-.13.06-.31t.05-.45q.03-.27.04-.64.01-.37.01-.87Zm5.01 2.29v-.02q.03-.13.06-.31t.06-.45q.02-.27.03-.64.01-.37.01-.87v-3.82q0-.49-.01-.87-.01-.37-.03-.64-.03-.27-.06-.45-.03-.19-.06-.31v-.02h1.4v.02q-.04.12-.07.31-.03.18-.05.45-.02.27-.04.64-.01.38-.01.87v3.82q0 .5.01.87.02.37.04.64t.05.45q.03.18.07.31v.02h-1.4Zm3.08-8.4h.38l6.03 6.42v-4.13q0-.49-.01-.87-.01-.37-.04-.64-.02-.27-.05-.45-.03-.19-.07-.31v-.02h1.04v.02q-.03.12-.06.31-.03.18-.05.45-.03.27-.04.64-.01.38-.01.87v6.23h-.2l-6.04-6.42v4.01q0 .5.01.87t.04.64q.02.27.05.45.03.18.06.31v.02h-1.04v-.02q.04-.13.07-.31.03-.18.05-.45.03-.27.04-.64.01-.37.01-.87v-3.82q0-.49-.01-.87-.01-.37-.04-.64-.02-.27-.05-.45-.03-.19-.07-.31v-.02Zm16.31 7.18v.24q0 .06-.02.13-.01.07-.06.12-.27.2-.58.36-.3.17-.66.29-.36.13-.77.19-.41.07-.89.07-1.06 0-1.94-.31-.88-.32-1.51-.89-.63-.57-.98-1.38-.34-.81-.34-1.79 0-.56.14-1.1.14-.53.42-1.02.27-.49.68-.89.4-.41.92-.71t1.14-.47q.63-.16 1.35-.16.29 0 .58.02.29.03.58.08t.55.12q.27.07.51.16l.4 1.08-.05.03q-.23-.21-.53-.39-.3-.17-.64-.3-.34-.13-.71-.2-.37-.08-.75-.08-.74 0-1.35.24-.62.23-1.06.67-.44.44-.69 1.07-.25.64-.25 1.46 0 .89.24 1.66.23.77.7 1.33.46.56 1.15.88.7.32 1.62.32.41 0 .74-.06.32-.07.54-.16.22-.1.34-.21.11-.12.11-.21v-.23q0-.41-.01-.71t-.04-.52q-.02-.22-.05-.38-.03-.15-.07-.29v-.02h1.41v.02q-.04.12-.07.29-.03.17-.05.4-.03.23-.04.53-.01.31-.01.72Zm6.34-3.21v2.14q0 .5.02.87.01.37.03.64.02.27.06.45.03.18.06.31v.02h-1.4v-.02q.03-.13.06-.31.04-.18.06-.45.02-.27.04-.64.01-.37.01-.87v-3.82q0-.49-.01-.87-.02-.37-.04-.64t-.06-.45q-.03-.19-.06-.31v-.02q.48 0 .98-.01h.97q.47 0 .89-.01.42-.01.76-.02t.58-.02q.23-.02.33-.04l-.29.78q-.19-.05-.45-.09-.22-.04-.54-.07-.32-.03-.74-.03-.14 0-.35.01-.21.01-.41.02-.24.01-.5.02v2.96q.61 0 1.11-.03.51-.03.87-.06.42-.04.76-.08l-.18.85q-.44-.06-.89-.1-.38-.05-.83-.08-.44-.03-.84-.03Zm8.19-4.11q.98 0 1.81.32.83.32 1.43.89.6.58.94 1.39.34.81.34 1.79 0 .55-.13 1.09-.12.54-.37 1.02t-.62.89q-.36.41-.83.7-.46.3-1.02.46-.57.17-1.22.17-.98 0-1.8-.31-.83-.32-1.44-.89-.6-.57-.94-1.38-.34-.81-.34-1.79 0-.56.13-1.1.13-.53.38-1.02t.61-.89q.36-.41.82-.71.47-.3 1.03-.47.57-.16 1.22-.16Zm.33 8.19q.65 0 1.19-.23.54-.23.93-.68.39-.45.61-1.09.21-.64.21-1.45 0-.91-.2-1.68-.21-.77-.62-1.33-.41-.57-1.02-.89-.62-.32-1.43-.32-.65 0-1.19.24-.54.23-.93.67-.39.44-.61 1.07-.21.64-.21 1.46 0 .89.2 1.67.21.78.62 1.35.41.56 1.02.89.62.32 1.43.32Zm6.75-3.26v1.32q0 .5.01.87.02.37.04.64t.05.45q.03.18.07.31v.02h-1.41v-.02q.04-.13.07-.31.03-.18.05-.45.03-.27.04-.64.01-.37.01-.87v-3.82q0-.49-.01-.87-.01-.37-.04-.64-.02-.27-.05-.45-.03-.19-.07-.31v-.02q.12.01.25.02.11.01.25.02h.28q.23 0 .62-.06.39-.05.99-.05.56 0 1.04.15t.83.44q.35.3.55.72.2.43.2.97 0 .42-.11.78-.11.36-.31.65-.19.3-.47.52-.28.23-.61.38l2.05 2.89q.15.21.29.37.13.16.25.27.12.11.23.19.11.07.23.12v.02h-1.7q-.01-.11-.11-.3-.1-.18-.23-.36l-2.07-2.93q-.29.03-.59.03-.31 0-.62-.05Zm0-4.34v3.88q.57.11 1.05.03.48-.07.82-.33.34-.26.53-.7.19-.44.19-1.08 0-.44-.1-.79-.1-.36-.29-.61-.2-.25-.5-.39-.3-.13-.69-.13-.26 0-.44.02-.19.02-.32.04-.15.03-.25.06Zm11.66 5.66v-5.6q-.69 0-1.25.06-.56.07-.96.14-.47.08-.84.19l.17-.95q.07.01.21.01.14.01.32.01.17.01.36.01.19.01.36.01h.3q.13.01.19.01h3.35q.06 0 .19-.01h.3q.17 0 .36-.01.19 0 .36-.01.18 0 .32-.01.14 0 .21-.01l.17.95q-.38-.11-.85-.19-.4-.07-.96-.14-.55-.06-1.25-.06v5.6q0 .5.02.87.01.37.03.64.02.27.06.45.03.18.06.31v.02h-1.4v-.02q.04-.13.07-.31.03-.18.05-.45.02-.27.04-.64.01-.37.01-.87Zm8.67-6.25q.98 0 1.81.32.83.32 1.43.89.6.58.94 1.39.34.81.34 1.79 0 .55-.13 1.09-.12.54-.37 1.02t-.62.89q-.36.41-.83.7-.46.3-1.02.46-.57.17-1.22.17-.97 0-1.8-.31-.83-.32-1.44-.89-.6-.57-.94-1.38-.34-.81-.34-1.79 0-.56.13-1.1.13-.53.38-1.02t.61-.89q.36-.41.82-.71.47-.3 1.03-.47.57-.16 1.22-.16Zm.33 8.19q.65 0 1.19-.23.54-.23.93-.68.39-.45.61-1.09.21-.64.21-1.45 0-.91-.2-1.68-.21-.77-.62-1.33-.41-.57-1.02-.89-.62-.32-1.43-.32-.65 0-1.19.24-.54.23-.93.67-.39.44-.61 1.07-.21.64-.21 1.46 0 .89.2 1.67.21.78.62 1.35.41.56 1.02.89.62.32 1.43.32Zm11.52-2.47v-3.29q0-.49-.01-.87-.01-.37-.03-.64-.03-.27-.06-.45-.03-.19-.06-.31v-.02h1.04v.02q-.03.12-.07.31-.03.18-.05.45-.02.27-.03.64-.02.38-.02.87v3.17q0 .84-.24 1.43t-.67.97q-.42.38-1.02.55-.6.17-1.31.17-.71 0-1.32-.16-.61-.17-1.07-.53-.45-.37-.71-.95-.26-.58-.26-1.42v-3.23q0-.49-.01-.87-.01-.37-.03-.64-.03-.27-.06-.45-.03-.19-.07-.31v-.02h1.41v.02q-.03.12-.07.31-.03.18-.05.45-.03.27-.04.64-.01.38-.01.87v3.29q0 .7.21 1.15.21.46.55.72.34.27.77.38.43.1.88.1.46 0 .89-.1.43-.11.77-.38.34-.26.55-.72.2-.45.2-1.15Zm3.75-.79v1.32q0 .5.01.87.02.37.04.64t.05.45q.03.18.07.31v.02h-1.41v-.02q.04-.13.07-.31.03-.18.05-.45.03-.27.04-.64.01-.37.01-.87v-3.82q0-.49-.01-.87-.01-.37-.04-.64-.02-.27-.05-.45-.03-.19-.07-.31v-.02q.12.01.25.02.11.01.25.02h.28q.23 0 .62-.06.39-.05.99-.05.56 0 1.04.15t.83.44q.35.3.55.72.19.43.19.97 0 .42-.1.78-.11.36-.31.65-.19.3-.47.52-.28.23-.62.38l2.06 2.89q.15.21.29.37.13.16.25.27.12.11.23.19.11.07.23.12v.02h-1.7q-.01-.11-.11-.3-.1-.18-.23-.36l-2.07-2.93q-.29.03-.59.03-.31 0-.62-.05Zm0-4.34v3.88q.57.11 1.05.03.48-.07.82-.33.34-.26.53-.7.19-.44.19-1.08 0-.44-.1-.79-.1-.36-.29-.61-.2-.25-.5-.39-.3-.13-.69-.13-.26 0-.44.02-.19.02-.32.04-.15.03-.25.06Zm5.9 7.95v-.02q.04-.13.07-.31.03-.18.05-.45.02-.27.04-.64.01-.37.01-.87v-3.82q0-.49-.01-.87-.02-.37-.04-.64t-.05-.45q-.03-.19-.07-.31v-.02h1.4v.02q-.03.12-.06.31-.04.18-.06.45-.02.27-.03.64-.02.38-.02.87v3.82q0 .5.02.87.01.37.03.64.02.27.06.45.03.18.06.31v.02h-1.4Zm6.68-8.16-.04 1.09h-.13q-.05-.13-.15-.3-.1-.17-.27-.32t-.41-.25q-.23-.1-.56-.1-.28 0-.51.09-.22.09-.37.24-.15.16-.22.38-.08.22-.08.48 0 .42.24.81.24.38.59.75.36.38.78.75.41.38.77.78.36.41.59.85.24.44.24.95 0 .38-.13.77-.13.38-.41.69-.27.3-.71.49-.43.19-1.03.19-.33 0-.63-.06t-.56-.15q-.25-.09-.46-.2-.2-.1-.33-.19l.14-1.3h.14q.07.28.21.53.15.25.36.44.22.19.49.3.28.12.61.12.3 0 .53-.09.24-.1.41-.26.17-.16.26-.38t.09-.49q0-.37-.13-.68-.14-.31-.36-.59-.22-.29-.49-.55-.28-.26-.58-.53-.29-.27-.57-.55-.28-.28-.5-.6-.22-.32-.35-.68-.13-.37-.13-.81 0-.46.17-.83.18-.38.48-.64.29-.26.67-.4.37-.14.77-.14.3 0 .54.04.25.05.44.11.2.07.35.13.14.07.24.11Zm1.5 8.16v-.02q.06-.1.14-.28.09-.19.13-.47.07-.41.15-.92.08-.51.16-1.08.09-.56.17-1.15.09-.59.16-1.16.08-.57.16-1.1.07-.53.13-.97.06-.44.1-.76.03-.33.05-.49h.74l3.69 6.89 3.66-6.89h.55l.96 6.96q.05.33.09.56.05.24.1.4.04.17.09.28.04.11.08.18v.02h-1.47v-.02q.02-.07.05-.21.03-.15.03-.36 0-.07-.01-.15 0-.08-.02-.17l-.74-5.62-3.46 6.51-.4-.05-3.48-6.52q-.21 1.39-.36 2.57-.06.5-.13 1.01-.06.5-.11.93-.05.43-.08.76-.03.34-.03.49 0 .2.01.36.01.15.02.25.02.13.04.22h-1.17Zm22.91-3.15q-.21 1.17-.92 1.97.6.6 1.22 1.11.63.5 1.24.88.6.37 1.16.58.57.22 1.04.22.18 0 .37-.04v.14q-.07.02-.18.08-.12.05-.29.1-.16.04-.39.08-.22.03-.51.03-.46 0-.99-.19t-1.1-.52q-.56-.34-1.15-.8-.58-.47-1.14-1.02-.51.35-1.12.54-.61.18-1.34.18-.65 0-1.18-.16-.52-.16-.89-.47-.36-.3-.56-.74-.19-.43-.19-.97 0-.52.19-.92t.51-.72q.31-.32.72-.59.4-.26.82-.51-.17-.44-.26-.85-.1-.42-.1-.8 0-.46.15-.83.15-.38.41-.63.26-.26.61-.4t.74-.14q.3 0 .56.08.25.08.44.24.19.16.31.4.11.24.11.56 0 .4-.17.72-.17.31-.44.58-.27.26-.62.49-.36.23-.73.44.19.44.45.89t.57.9q.31.45.67.88.35.44.74.85.28-.38.44-.87.16-.49.16-1.07 0-.49-.06-.82-.05-.33-.11-.56v-.03h1.05v.03q-.04.14-.06.31-.02.17-.04.38-.03.21-.05.46-.03.25-.09.53Zm-3.66 2.82q.48 0 .92-.13.43-.13.8-.38-.4-.42-.78-.87-.37-.45-.7-.91-.33-.47-.61-.94-.27-.47-.48-.93-.27.19-.51.39-.24.21-.41.46-.18.24-.28.53-.11.29-.11.64 0 .45.17.85.16.39.44.68.29.28.69.44.39.17.86.17Zm-.44-6.52q0 .34.08.7.07.36.21.75.29-.18.53-.38.25-.19.44-.42.18-.22.29-.48.1-.26.1-.57 0-.17-.04-.33-.04-.15-.13-.27-.09-.12-.23-.19-.13-.07-.32-.07-.47 0-.7.33-.23.34-.23.93Zm13.79-1.31-.04 1.09h-.13q-.05-.13-.15-.3-.1-.17-.27-.32t-.4-.25q-.24-.1-.56-.1-.29 0-.51.09-.23.09-.38.24-.15.16-.22.38-.08.22-.08.48 0 .42.24.81.24.38.59.75.36.38.78.75.41.38.77.78.36.41.6.85.23.44.23.95 0 .38-.13.77-.13.38-.41.69-.27.3-.7.49-.44.19-1.04.19-.33 0-.63-.06t-.56-.15q-.25-.09-.46-.2-.2-.1-.33-.19l.14-1.3h.14q.07.28.22.53.14.25.36.44.21.19.49.3.27.12.6.12.3 0 .54-.09.23-.1.4-.26t.26-.38q.09-.22.09-.49 0-.37-.13-.68-.14-.31-.36-.59-.22-.29-.49-.55-.28-.26-.57-.53-.3-.27-.58-.55-.27-.28-.49-.6-.22-.32-.36-.68-.13-.37-.13-.81 0-.46.18-.83.17-.38.47-.64.3-.26.67-.4.38-.14.77-.14.3 0 .54.04.25.05.45.11.19.07.34.13.15.07.24.11Zm7.93 5.34v-3.29q0-.49-.02-.87-.01-.37-.03-.64-.02-.27-.05-.45-.03-.19-.07-.31v-.02h1.05v.02q-.04.12-.07.31-.03.18-.05.45-.03.27-.04.64-.01.38-.01.87v3.17q0 .84-.24 1.43t-.67.97q-.43.38-1.03.55-.6.17-1.3.17-.71 0-1.33-.16-.61-.17-1.06-.53-.46-.37-.71-.95-.26-.58-.26-1.42v-3.23q0-.49-.01-.87-.02-.37-.04-.64t-.05-.45q-.04-.19-.07-.31v-.02h1.4v.02q-.03.12-.06.31-.04.18-.06.45-.02.27-.03.64-.02.38-.02.87v3.29q0 .7.21 1.15.21.46.55.72.34.27.77.38.44.1.89.1t.88-.1q.44-.11.77-.38.34-.26.55-.72.21-.45.21-1.15Zm6.05-5.34-.04 1.09h-.13q-.05-.13-.15-.3-.1-.17-.27-.32t-.4-.25q-.24-.1-.56-.1-.29 0-.51.09-.23.09-.38.24-.14.16-.22.38-.08.22-.08.48 0 .42.24.81.24.38.6.75.35.38.77.75.41.38.77.78.36.41.6.85.23.44.23.95 0 .38-.13.77-.13.38-.41.69-.27.3-.7.49-.44.19-1.04.19-.33 0-.63-.06t-.56-.15q-.25-.09-.45-.2-.21-.1-.34-.19l.14-1.3h.15q.06.28.21.53.14.25.36.44.21.19.49.3.27.12.6.12.3 0 .54-.09.23-.1.4-.26t.26-.38q.09-.22.09-.49 0-.37-.13-.68-.14-.31-.35-.59-.22-.29-.5-.55-.28-.26-.57-.53-.3-.27-.58-.55-.27-.28-.49-.6-.22-.32-.36-.68-.13-.37-.13-.81 0-.46.18-.83.17-.38.47-.64.3-.26.67-.4.38-.14.77-.14.3 0 .54.04.25.05.45.11.19.07.34.13.15.07.24.11Zm4.12 5.87v-5.6q-.69 0-1.24.06-.56.07-.96.14-.47.08-.84.19l.17-.95q.07.01.21.01.14.01.31.01.17.01.37.01.19.01.36.01h.3q.13.01.19.01h3.34q.06 0 .19-.01h.31q.17 0 .36-.01.19 0 .36-.01.17 0 .31-.01.14 0 .21-.01l.17.95q-.37-.11-.84-.19-.4-.07-.96-.14-.56-.06-1.25-.06v5.6q0 .5.02.87.01.37.03.64.02.27.05.45.04.18.07.31v.02h-1.4v-.02q.04-.13.06-.31.03-.18.06-.45.02-.27.03-.64.01-.37.01-.87Zm12.09 2.29h-1.61v-.02q.01-.03.02-.09v-.11q0-.18-.05-.4-.05-.22-.19-.55l-.7-1.59q-.33-.01-.88-.01h-2.07q-.43 0-.78.01l-.67 1.55q-.09.21-.19.47t-.1.52q0 .08.02.13.01.05.02.07v.02h-1.2v-.02q.11-.11.27-.4.16-.28.34-.71l3.36-7.45h.47l3.18 7.16q.11.25.23.49.12.24.23.43.1.18.19.31.08.13.11.17v.02Zm-6.04-3.28h2.03q.34-.01.66-.01t.57-.01l-1.64-3.72-1.62 3.74Zm6.81 3.28v-.02q.03-.13.06-.31t.06-.45q.02-.27.03-.64.01-.37.01-.87v-3.82q0-.49-.01-.87-.01-.37-.03-.64-.03-.27-.06-.45-.03-.19-.06-.31v-.02h1.4v.02q-.03.12-.07.31-.03.18-.05.45-.02.27-.04.64-.01.38-.01.87v3.82q0 .5.01.87.02.37.04.64t.05.45q.04.18.07.31v.02h-1.4Zm3.08-8.4h.38l6.03 6.42v-4.13q0-.49-.01-.87-.01-.37-.03-.64-.03-.27-.06-.45-.03-.19-.07-.31v-.02h1.05v.02q-.04.12-.07.31-.03.18-.05.45-.03.27-.04.64-.01.38-.01.87v6.23h-.2l-6.04-6.42v4.01q0 .5.01.87t.04.64q.02.27.05.45.03.18.06.31v.02h-1.04v-.02q.04-.13.07-.31.03-.18.05-.45.03-.27.04-.64.01-.37.01-.87v-3.82q0-.49-.01-.87-.01-.37-.04-.64-.02-.27-.05-.45-.03-.19-.07-.31v-.02Zm16.33 8.4h-1.6v-.02q.01-.03.01-.09.01-.06.01-.11 0-.18-.05-.4-.05-.22-.19-.55l-.71-1.59q-.33-.01-.87-.01h-2.07q-.43 0-.78.01l-.67 1.55q-.09.21-.19.47t-.1.52q0 .08.01.13t.02.07v.02h-1.19v-.02q.1-.11.26-.4.16-.28.35-.71l3.36-7.45h.46l3.19 7.16q.11.25.23.49.12.24.22.43.11.18.19.31t.11.17v.02Zm-6.03-3.28h2.03q.34-.01.66-.01.31 0 .57-.01l-1.65-3.72-1.61 3.74Zm6.92.99v-3.82q0-.49-.01-.87-.01-.37-.03-.64-.03-.27-.06-.45-.03-.19-.07-.31v-.02h.25q.11.01.25.01h.28q.21 0 .57-.04t.93-.04q.53 0 .97.14.45.13.78.39.32.26.5.64.19.37.19.85 0 .41-.11.73t-.32.55q-.2.24-.48.4-.29.16-.63.26.5.07.91.25.41.18.71.45.29.27.46.63.16.36.16.8 0 1.24-.82 1.86-.81.61-2.44.61-.17 0-.41-.01-.23-.02-.47-.03-.25-.02-.48-.04-.23-.01-.41-.01h-.39v-.02q.04-.13.07-.31.03-.18.06-.45.02-.27.03-.64.01-.37.01-.87Zm2.15-1.86q-.4 0-.67.02-.26.03-.41.06v1.78q0 .68.02 1.13.03.45.07.73.22.03.44.05.22.02.36.02 1.1 0 1.6-.49.51-.49.51-1.5 0-.4-.12-.73-.12-.33-.36-.57-.24-.24-.6-.37t-.84-.13Zm-1.08-3.81v3.37q.16.01.29.02h.28q.4 0 .72-.11.33-.12.56-.35.23-.23.36-.57.13-.34.13-.8 0-.38-.09-.69-.09-.31-.28-.53-.18-.22-.45-.34-.27-.11-.62-.11-.22 0-.39.01-.17.02-.28.04-.14.03-.23.06Zm5.55 7.96v-.02q.03-.13.06-.31t.05-.45q.03-.27.04-.64.01-.37.01-.87v-3.82q0-.49-.01-.87-.01-.37-.04-.64-.02-.27-.05-.45-.03-.19-.06-.31v-.02h1.4v.02q-.04.12-.07.31-.03.18-.05.45-.02.27-.04.64-.01.38-.01.87v3.82q0 .5.01.87.02.37.04.64t.05.45q.03.18.07.31v.02h-1.4Zm4.36-6.11v5.59q.69 0 1.27-.05.58-.06 1.02-.14.5-.08.92-.19l-.17.95q-.07-.01-.21-.01-.14-.01-.32-.02-.17 0-.36-.01h-.36q-.17 0-.3-.01h-2.72v-.02q.03-.13.06-.31.04-.18.06-.45.02-.27.03-.64.02-.37.02-.87v-3.82q0-.49-.02-.87-.01-.37-.03-.64-.02-.27-.06-.45-.03-.19-.06-.31v-.02h1.4v.02q-.03.12-.06.31-.04.18-.06.45-.02.27-.03.64-.02.38-.02.87Zm4.34 6.11v-.02q.03-.13.06-.31t.06-.45q.02-.27.03-.64.01-.37.01-.87v-3.82q0-.49-.01-.87-.01-.37-.03-.64-.03-.27-.06-.45-.03-.19-.06-.31v-.02h1.4v.02q-.04.12-.07.31-.03.18-.05.45-.02.27-.04.64-.01.38-.01.87v3.82q0 .5.01.87.02.37.04.64t.05.45q.03.18.07.31v.02h-1.4Zm5.34-2.29v-5.6q-.69 0-1.25.06-.56.07-.96.14-.47.08-.84.19l.17-.95q.07.01.21.01.14.01.31.01.18.01.37.01.19.01.36.01h.3q.13.01.19.01h3.35q.05 0 .19-.01h.3q.17 0 .36-.01.19 0 .36-.01.17 0 .32-.01.14 0 .21-.01l.17.95q-.38-.11-.85-.19-.4-.07-.96-.14-.56-.06-1.25-.06v5.6q0 .5.02.87.01.37.03.64.02.27.06.45.03.18.06.31v.02h-1.4v-.02q.04-.13.07-.31.03-.18.05-.45.02-.27.04-.64.01-.37.01-.87Zm10.81-5.17-2.43 3.43v1.74q0 .5.01.87t.03.64q.03.27.06.45t.07.31v.02h-1.41v-.02q.03-.13.07-.31.03-.18.05-.45.02-.27.03-.64.02-.37.02-.87v-1.62l-2.62-3.57q-.13-.18-.27-.33-.13-.15-.25-.27-.11-.11-.21-.19-.09-.07-.14-.11v-.02h1.77q0 .13.12.44.11.31.41.72l1.92 2.63 1.88-2.74.2-.3q.1-.15.18-.3.09-.14.14-.25.05-.12.05-.2h1.14v.02q-.13.11-.35.33-.21.22-.47.59Z" class="tp-slogan" data-gra="path-slogan"/>
  </g>
</svg>
