            <svg data-v-6805eed4="" version="1.0" xmlns="http://www.w3.org/2000/svg" xmlns:xlink="http://www.w3.org/1999/xlink" width="100%" height="100%" viewBox="0 0 340.000000 250.000000" preserveAspectRatio="xMidYMid meet" color-interpolation-filters="sRGB" style="margin: auto;">
              <rect data-v-6805eed4="" x="0" y="0" width="100%" height="100%" fill="#ffffff" fill-opacity="1" class="background"></rect>
              <rect data-v-6805eed4="" x="0" y="0" width="100%" height="100%" fill="url(#watermark)" fill-opacity="1" class="watermarklayer"></rect>
              <g data-v-6805eed4="" fill="#333" class="iconlinesvg-g iconlinesvg" transform="translate(72.69999694824219,92.21199989318848)">
                <g class="tp-name" transform="translate(0,0)">
                  <g transform="translate(0, 8.468475236122234)">
                    <g>
                      <g class="imagesvg">
                        <g>
                          <rect fill="#333" fill-opacity="0" stroke-width="2" x="0" y="0" width="35.463237076826985" height="33.483049527755526" class="image-rect"></rect>
                          <svg x="0" y="0" width="35.463237076826985" height="33.483049527755526" filtersec="colorsb6422780910" class="image-svg-svg primary" style="overflow: visible;">
                            <svg xmlns="http://www.w3.org/2000/svg" viewBox="0 0 98.5 93">
                              <title>页面-1 (2)</title>
                              <g fill-rule="evenodd">
                                <path d="M98.12 48h.38v45h-31V64.91c14.03-.85 25.77-7.62 30.62-16.91zM31 0v28.09C17 28.94 5.23 35.71.38 45H0V0z" fill="#333333"></path>
                                <path d="M45 33a59.71 59.71 0 0 1 15.5 2C43.28 39.64 31 51.77 31 66v27H0V65c.74-17.76 20.6-32 45-32z" fill="#147017"></path>
                                <path d="M98.5 0v28c-.72 17.76-20.58 32-45 32A59.71 59.71 0 0 1 38 58c17.22-4.63 29.5-16.76 29.5-31V0z" fill="#147017"></path>
                              </g>
                            </svg>
                          </svg>
                          <!---->
                        </g>
                      </g>
                    </g>
                  </g>
                  <g transform="translate(39, 0)">
                    <g data-gra="path-name" fill="#333" transform="scale(1)">
                      <path d="M27.06-33.24L35.52-33.24L35.52 0L27.06 0L27.06-4.20Q25.44-2.04 22.83-0.81Q20.22 0.42 17.16 0.42L17.16 0.42Q13.26 0.42 10.26-1.23Q7.26-2.88 5.55-6.09Q3.84-9.30 3.84-13.74L3.84-13.74L3.84-33.24L12.24-33.24L12.24-14.94Q12.24-10.98 14.22-8.85Q16.20-6.72 19.62-6.72L19.62-6.72Q23.10-6.72 25.08-8.85Q27.06-10.98 27.06-14.94L27.06-14.94L27.06-33.24Z" transform="translate(-3.84, 41.879999999999995)"></path>
                    </g>
                  </g>
                  <g transform="translate(74, 0)">
                    <g data-gra="path-name" fill="#333" transform="scale(1)">
                      <path d="M45.42-33.72Q51.54-33.72 55.29-29.97Q59.04-26.22 59.04-19.50L59.04-19.50L59.04 0L50.64 0L50.64-18.36Q50.64-22.26 48.66-24.33Q46.68-26.40 43.26-26.40L43.26-26.40Q39.84-26.40 37.83-24.33Q35.82-22.26 35.82-18.36L35.82-18.36L35.82 0L27.42 0L27.42-18.36Q27.42-22.26 25.44-24.33Q23.46-26.40 20.04-26.40L20.04-26.40Q16.56-26.40 14.55-24.33Q12.54-22.26 12.54-18.36L12.54-18.36L12.54 0L4.14 0L4.14-33.24L12.54-33.24L12.54-29.22Q14.16-31.32 16.71-32.52Q19.26-33.72 22.32-33.72L22.32-33.72Q26.22-33.72 29.28-32.07Q32.34-30.42 34.02-27.36L34.02-27.36Q35.64-30.24 38.73-31.98Q41.82-33.72 45.42-33.72L45.42-33.72Z" transform="translate(-4.14, 41.879999999999995)"></path>
                    </g>
                  </g>
                  <g transform="translate(132, 0)">
                    <g data-gra="path-name" fill="#333" transform="scale(1)">
                      <path d="M27.06-33.24L35.52-33.24L35.52 0L27.06 0L27.06-4.20Q25.44-2.04 22.83-0.81Q20.22 0.42 17.16 0.42L17.16 0.42Q13.26 0.42 10.26-1.23Q7.26-2.88 5.55-6.09Q3.84-9.30 3.84-13.74L3.84-13.74L3.84-33.24L12.24-33.24L12.24-14.94Q12.24-10.98 14.22-8.85Q16.20-6.72 19.62-6.72L19.62-6.72Q23.10-6.72 25.08-8.85Q27.06-10.98 27.06-14.94L27.06-14.94L27.06-33.24Z" transform="translate(-3.84, 41.879999999999995)"></path>
                    </g>
                  </g>
                  <g transform="translate(167, 0)">
                    <g data-gra="path-name" fill="#333" transform="scale(1)">
                      <path d="M16.86 0.54Q12.78 0.54 9.54-0.93Q6.30-2.40 4.41-4.92Q2.52-7.44 2.34-10.50L2.34-10.50L10.80-10.50Q11.04-8.58 12.69-7.32Q14.34-6.06 16.80-6.06L16.80-6.06Q19.20-6.06 20.55-7.02Q21.90-7.98 21.90-9.48L21.90-9.48Q21.90-11.10 20.25-11.91Q18.60-12.72 15-13.68L15-13.68Q11.28-14.58 8.91-15.54Q6.54-16.50 4.83-18.48Q3.12-20.46 3.12-23.82L3.12-23.82Q3.12-26.58 4.71-28.86Q6.30-31.14 9.27-32.46Q12.24-33.78 16.26-33.78L16.26-33.78Q22.20-33.78 25.74-30.81Q29.28-27.84 29.64-22.80L29.64-22.80L21.60-22.80Q21.42-24.78 19.95-25.95Q18.48-27.12 16.02-27.12L16.02-27.12Q13.74-27.12 12.51-26.28Q11.28-25.44 11.28-23.94L11.28-23.94Q11.28-22.26 12.96-21.39Q14.64-20.52 18.18-19.62L18.18-19.62Q21.78-18.72 24.12-17.76Q26.46-16.80 28.17-14.79Q29.88-12.78 29.94-9.48L29.94-9.48Q29.94-6.60 28.35-4.32Q26.76-2.04 23.79-0.75Q20.82 0.54 16.86 0.54L16.86 0.54Z" transform="translate(-2.34, 41.879999999999995)"></path>
                    </g>
                  </g>
                </g>
                <g data-gra="path-slogan" fill-rule="" class="tp-slogan" fill="#333" transform="translate(5,49.31999969482422)">
                  <rect x="0" height="1" y="3.580000400543213" width="19.18000030517578"></rect>
                  <rect height="1" y="3.580000400543213" width="19.18000030517578" x="165.42000579833984"></rect>
                  <g transform="translate(22.18000030517578,0)">
                    <g transform="scale(1)">
                      <path d="M2.71 0L2.71-7.03L0.34-7.03L0.34-7.87L6.10-7.87L6.10-7.03L3.72-7.03L3.72 0L2.71 0ZM10.13 0.14L10.13 0.14Q9.38 0.14 8.77-0.14Q8.15-0.43 7.70-0.97Q7.26-1.50 7.01-2.26Q6.77-3.02 6.77-3.97L6.77-3.97Q6.77-4.92 7.01-5.67Q7.26-6.42 7.70-6.94Q8.15-7.46 8.77-7.74Q9.38-8.02 10.13-8.02L10.13-8.02Q10.87-8.02 11.49-7.73Q12.11-7.45 12.56-6.93Q13.01-6.41 13.25-5.66Q13.50-4.91 13.50-3.97L13.50-3.97Q13.50-3.02 13.25-2.26Q13.01-1.50 12.56-0.97Q12.11-0.43 11.49-0.14Q10.87 0.14 10.13 0.14ZM10.13-0.73L10.13-0.73Q10.66-0.73 11.08-0.96Q11.51-1.19 11.81-1.61Q12.12-2.04 12.29-2.63Q12.46-3.23 12.46-3.97L12.46-3.97Q12.46-4.70 12.29-5.29Q12.12-5.88 11.81-6.29Q11.51-6.70 11.08-6.92Q10.66-7.14 10.13-7.14L10.13-7.14Q9.60-7.14 9.17-6.92Q8.75-6.70 8.44-6.29Q8.14-5.88 7.97-5.29Q7.80-4.70 7.80-3.97L7.80-3.97Q7.80-3.23 7.97-2.63Q8.14-2.04 8.44-1.61Q8.75-1.19 9.17-0.96Q9.60-0.73 10.13-0.73ZM15.16-3.25L15.16-7.87L16.15-7.87L16.15-3.23Q16.15-2.52 16.30-2.04Q16.44-1.56 16.69-1.27Q16.93-0.98 17.27-0.86Q17.60-0.73 17.99-0.73L17.99-0.73Q18.38-0.73 18.72-0.86Q19.06-0.98 19.31-1.27Q19.56-1.56 19.70-2.04Q19.85-2.52 19.85-3.23L19.85-3.23L19.85-7.87L20.81-7.87L20.81-3.25Q20.81-2.30 20.59-1.66Q20.38-1.01 20.00-0.61Q19.62-0.20 19.10-0.03Q18.59 0.14 17.99 0.14L17.99 0.14Q17.39 0.14 16.87-0.03Q16.34-0.20 15.97-0.61Q15.59-1.01 15.37-1.66Q15.16-2.30 15.16-3.25L15.16-3.25ZM23.93-7.07L23.93-4.14L25.25-4.14Q26.17-4.14 26.66-4.52Q27.16-4.90 27.16-5.66L27.16-5.66Q27.16-6.44 26.66-6.76Q26.17-7.07 25.25-7.07L25.25-7.07L23.93-7.07ZM28.38 0L27.25 0L25.36-3.32L23.93-3.32L23.93 0L22.93 0L22.93-7.87L25.39-7.87Q25.99-7.87 26.50-7.76Q27.01-7.64 27.38-7.38Q27.74-7.12 27.95-6.70Q28.15-6.28 28.15-5.66L28.15-5.66Q28.15-4.74 27.67-4.19Q27.19-3.64 26.39-3.43L26.39-3.43L28.38 0ZM29.90 0L29.90-7.87L30.90-7.87L30.90 0L29.90 0ZM32.48-1.02L33.08-1.72Q33.50-1.27 34.07-1.00Q34.64-0.73 35.26-0.73L35.26-0.73Q36.04-0.73 36.47-1.09Q36.90-1.44 36.90-2.02L36.90-2.02Q36.90-2.32 36.80-2.53Q36.70-2.74 36.52-2.89Q36.35-3.04 36.11-3.16Q35.87-3.28 35.59-3.41L35.59-3.41L34.46-3.90Q34.19-4.02 33.90-4.19Q33.61-4.36 33.38-4.60Q33.16-4.84 33.01-5.17Q32.87-5.50 32.87-5.93L32.87-5.93Q32.87-6.37 33.05-6.76Q33.24-7.14 33.57-7.42Q33.90-7.70 34.35-7.86Q34.80-8.02 35.34-8.02L35.34-8.02Q36.05-8.02 36.65-7.75Q37.25-7.48 37.67-7.04L37.67-7.04L37.13-6.40Q36.77-6.74 36.33-6.94Q35.89-7.14 35.34-7.14L35.34-7.14Q34.68-7.14 34.28-6.83Q33.88-6.53 33.88-5.99L33.88-5.99Q33.88-5.70 33.99-5.50Q34.10-5.30 34.30-5.15Q34.49-5.00 34.72-4.89Q34.94-4.78 35.18-4.68L35.18-4.68L36.30-4.20Q36.64-4.06 36.94-3.87Q37.24-3.68 37.45-3.44Q37.67-3.19 37.79-2.86Q37.92-2.53 37.92-2.10L37.92-2.10Q37.92-1.63 37.73-1.22Q37.55-0.82 37.20-0.51Q36.85-0.20 36.36-0.03Q35.87 0.14 35.24 0.14L35.24 0.14Q34.42 0.14 33.71-0.17Q33-0.48 32.48-1.02L32.48-1.02ZM39.47 0L39.47-7.87L40.64-7.87L42.17-3.65L42.74-2.04L42.79-2.04L43.34-3.65L44.86-7.87L46.03-7.87L46.03 0L45.08 0L45.08-4.33Q45.08-4.86 45.13-5.50Q45.17-6.13 45.22-6.66L45.22-6.66L45.17-6.66L44.53-4.91L43.02-0.79L42.46-0.79L40.93-4.91L40.31-6.66L40.26-6.66Q40.30-6.13 40.34-5.50Q40.39-4.86 40.39-4.33L40.39-4.33L40.39 0L39.47 0ZM50.88-2.10L50.88-2.10Q50.88-1.78 51.00-1.51Q51.12-1.24 51.33-1.04Q51.54-0.85 51.82-0.75Q52.10-0.65 52.43-0.65L52.43-0.65Q52.84-0.65 53.21-0.82Q53.58-0.98 53.93-1.28L53.93-1.28Q53.35-1.79 52.82-2.39Q52.28-2.99 51.86-3.62L51.86-3.62Q51.44-3.29 51.16-2.92Q50.88-2.56 50.88-2.10ZM51.80-6.17L51.80-6.17Q51.80-5.84 51.91-5.50Q52.01-5.15 52.18-4.79L52.18-4.79Q52.44-4.97 52.69-5.15Q52.93-5.34 53.12-5.54Q53.30-5.74 53.41-5.96Q53.52-6.18 53.52-6.44L53.52-6.44Q53.52-6.79 53.35-7.05Q53.17-7.31 52.78-7.31L52.78-7.31Q52.33-7.31 52.07-6.98Q51.80-6.66 51.80-6.17ZM56.66-0.67L56.40 0.14Q55.98 0.02 55.52-0.20Q55.07-0.42 54.59-0.76L54.59-0.76Q54.13-0.35 53.57-0.10Q53.02 0.14 52.32 0.14L52.32 0.14Q51.78 0.14 51.34-0.02Q50.90-0.18 50.59-0.47Q50.27-0.76 50.09-1.16Q49.92-1.56 49.92-2.04L49.92-2.04Q49.92-2.44 50.05-2.76Q50.17-3.08 50.39-3.36Q50.60-3.64 50.89-3.87Q51.17-4.10 51.47-4.31L51.47-4.31Q51.23-4.80 51.09-5.26Q50.95-5.72 50.95-6.16L50.95-6.16Q50.95-6.55 51.08-6.89Q51.22-7.22 51.46-7.48Q51.70-7.73 52.03-7.87Q52.37-8.02 52.78-8.02L52.78-8.02Q53.51-8.02 53.92-7.58Q54.32-7.15 54.32-6.46L54.32-6.46Q54.32-6.07 54.17-5.75Q54.01-5.42 53.76-5.14Q53.51-4.86 53.19-4.61Q52.87-4.37 52.55-4.13L52.55-4.13Q52.93-3.52 53.45-2.95Q53.98-2.39 54.54-1.92L54.54-1.92Q54.90-2.41 55.18-2.99Q55.46-3.56 55.64-4.25L55.64-4.25L56.57-4.25Q56.33-3.47 55.99-2.76Q55.66-2.05 55.19-1.43L55.19-1.43Q55.60-1.15 55.97-0.96Q56.34-0.77 56.66-0.67L56.66-0.67ZM59.77-1.02L60.37-1.72Q60.79-1.27 61.36-1.00Q61.93-0.73 62.54-0.73L62.54-0.73Q63.32-0.73 63.76-1.09Q64.19-1.44 64.19-2.02L64.19-2.02Q64.19-2.32 64.09-2.53Q63.98-2.74 63.81-2.89Q63.64-3.04 63.40-3.16Q63.16-3.28 62.88-3.41L62.88-3.41L61.75-3.90Q61.48-4.02 61.19-4.19Q60.90-4.36 60.67-4.60Q60.44-4.84 60.30-5.17Q60.16-5.50 60.16-5.93L60.16-5.93Q60.16-6.37 60.34-6.76Q60.53-7.14 60.86-7.42Q61.19-7.70 61.64-7.86Q62.09-8.02 62.63-8.02L62.63-8.02Q63.34-8.02 63.94-7.75Q64.54-7.48 64.96-7.04L64.96-7.04L64.42-6.40Q64.06-6.74 63.62-6.94Q63.18-7.14 62.63-7.14L62.63-7.14Q61.97-7.14 61.57-6.83Q61.16-6.53 61.16-5.99L61.16-5.99Q61.16-5.70 61.28-5.50Q61.39-5.30 61.58-5.15Q61.78-5.00 62.00-4.89Q62.23-4.78 62.47-4.68L62.47-4.68L63.59-4.20Q63.92-4.06 64.22-3.87Q64.52-3.68 64.74-3.44Q64.96-3.19 65.08-2.86Q65.21-2.53 65.21-2.10L65.21-2.10Q65.21-1.63 65.02-1.22Q64.84-0.82 64.49-0.51Q64.14-0.20 63.65-0.03Q63.16 0.14 62.53 0.14L62.53 0.14Q61.70 0.14 61.00-0.17Q60.29-0.48 59.77-1.02L59.77-1.02ZM66.72-3.25L66.72-7.87L67.72-7.87L67.72-3.23Q67.72-2.52 67.86-2.04Q68.00-1.56 68.25-1.27Q68.50-0.98 68.83-0.86Q69.17-0.73 69.55-0.73L69.55-0.73Q69.95-0.73 70.28-0.86Q70.62-0.98 70.87-1.27Q71.12-1.56 71.27-2.04Q71.41-2.52 71.41-3.23L71.41-3.23L71.41-7.87L72.37-7.87L72.37-3.25Q72.37-2.30 72.16-1.66Q71.94-1.01 71.56-0.61Q71.18-0.20 70.67-0.03Q70.15 0.14 69.55 0.14L69.55 0.14Q68.95 0.14 68.43-0.03Q67.91-0.20 67.53-0.61Q67.15-1.01 66.94-1.66Q66.72-2.30 66.72-3.25L66.72-3.25ZM73.80-1.02L74.40-1.72Q74.82-1.27 75.39-1.00Q75.96-0.73 76.57-0.73L76.57-0.73Q77.35-0.73 77.78-1.09Q78.22-1.44 78.22-2.02L78.22-2.02Q78.22-2.32 78.11-2.53Q78.01-2.74 77.84-2.89Q77.66-3.04 77.42-3.16Q77.18-3.28 76.91-3.41L76.91-3.41L75.78-3.90Q75.50-4.02 75.22-4.19Q74.93-4.36 74.70-4.60Q74.47-4.84 74.33-5.17Q74.18-5.50 74.18-5.93L74.18-5.93Q74.18-6.37 74.37-6.76Q74.56-7.14 74.89-7.42Q75.22-7.70 75.67-7.86Q76.12-8.02 76.66-8.02L76.66-8.02Q77.36-8.02 77.96-7.75Q78.56-7.48 78.98-7.04L78.98-7.04L78.44-6.40Q78.08-6.74 77.65-6.94Q77.21-7.14 76.66-7.14L76.66-7.14Q76.00-7.14 75.59-6.83Q75.19-6.53 75.19-5.99L75.19-5.99Q75.19-5.70 75.31-5.50Q75.42-5.30 75.61-5.15Q75.80-5.00 76.03-4.89Q76.26-4.78 76.50-4.68L76.50-4.68L77.62-4.20Q77.95-4.06 78.25-3.87Q78.55-3.68 78.77-3.44Q78.98-3.19 79.11-2.86Q79.24-2.53 79.24-2.10L79.24-2.10Q79.24-1.63 79.05-1.22Q78.86-0.82 78.52-0.51Q78.17-0.20 77.68-0.03Q77.18 0.14 76.56 0.14L76.56 0.14Q75.73 0.14 75.02-0.17Q74.32-0.48 73.80-1.02L73.80-1.02ZM82.18 0L82.18-7.03L79.80-7.03L79.80-7.87L85.56-7.87L85.56-7.03L83.18-7.03L83.18 0L82.18 0ZM87.48-3.20L89.84-3.20L89.47-4.40Q89.26-5.06 89.06-5.72Q88.87-6.37 88.68-7.06L88.68-7.06L88.63-7.06Q88.45-6.37 88.26-5.72Q88.07-5.06 87.85-4.40L87.85-4.40L87.48-3.20ZM90.84 0L90.10-2.40L87.23-2.40L86.47 0L85.45 0L88.12-7.87L89.24-7.87L91.91 0L90.84 0ZM93.02 0L93.02-7.87L94.02-7.87L94.02 0L93.02 0ZM96.18 0L96.18-7.87L97.21-7.87L100.06-2.93L100.91-1.30L100.96-1.30Q100.92-1.90 100.88-2.54Q100.84-3.18 100.84-3.80L100.84-3.80L100.84-7.87L101.78-7.87L101.78 0L100.75 0L97.90-4.96L97.04-6.58L97.00-6.58Q97.04-5.98 97.09-5.36Q97.13-4.74 97.13-4.12L97.13-4.12L97.13 0L96.18 0ZM104.93-3.20L107.29-3.20L106.92-4.40Q106.70-5.06 106.51-5.72Q106.32-6.37 106.13-7.06L106.13-7.06L106.08-7.06Q105.90-6.37 105.71-5.72Q105.52-5.06 105.30-4.40L105.30-4.40L104.93-3.20ZM108.29 0L107.54-2.40L104.68-2.40L103.92 0L102.90 0L105.56-7.87L106.69-7.87L109.36 0L108.29 0ZM110.47 0L110.47-7.87L112.81-7.87Q113.41-7.87 113.91-7.76Q114.41-7.66 114.76-7.43Q115.12-7.20 115.31-6.83Q115.51-6.47 115.51-5.95L115.51-5.95Q115.51-5.36 115.18-4.89Q114.84-4.42 114.14-4.24L114.14-4.24L114.14-4.19Q115.01-4.06 115.49-3.59Q115.97-3.12 115.97-2.30L115.97-2.30Q115.97-1.73 115.75-1.30Q115.54-0.86 115.14-0.58Q114.74-0.29 114.19-0.14Q113.64 0 112.98 0L112.98 0L110.47 0ZM111.47-4.51L112.63-4.51Q113.65-4.51 114.09-4.86Q114.53-5.21 114.53-5.87L114.53-5.87Q114.53-6.52 114.07-6.80Q113.60-7.08 112.68-7.08L112.68-7.08L111.47-7.08L111.47-4.51ZM111.47-0.79L112.84-0.79Q113.86-0.79 114.42-1.17Q114.98-1.55 114.98-2.35L114.98-2.35Q114.98-3.08 114.43-3.43Q113.88-3.77 112.84-3.77L112.84-3.77L111.47-3.77L111.47-0.79ZM117.53 0L117.53-7.87L118.52-7.87L118.52 0L117.53 0ZM120.68 0L120.68-7.87L121.68-7.87L121.68-0.85L125.12-0.85L125.12 0L120.68 0ZM126.52 0L126.52-7.87L127.51-7.87L127.51 0L126.52 0ZM131.30 0L131.30-7.03L128.93-7.03L128.93-7.87L134.69-7.87L134.69-7.03L132.31-7.03L132.31 0L131.30 0ZM137.21 0L137.21-3.05L134.84-7.87L135.91-7.87L136.93-5.65Q137.12-5.22 137.30-4.80Q137.48-4.38 137.69-3.94L137.69-3.94L137.74-3.94Q137.94-4.38 138.14-4.80Q138.35-5.22 138.53-5.65L138.53-5.65L139.54-7.87L140.58-7.87L138.22-3.05L138.22 0L137.21 0Z" transform="translate(-0.336, 8.016)"></path>
                    </g>
                  </g>
                </g>
              </g>
              <defs v-gra="od"></defs>
            </svg>