<svg data-v-6805eed4="" version="1.0" xmlns="http://www.w3.org/2000/svg" xmlns:xlink="http://www.w3.org/1999/xlink" width="100%" height="100%" viewBox="0 0 340.000000 250.000000" preserveAspectRatio="xMidYMid meet" color-interpolation-filters="sRGB" style="margin: auto;">   <g data-v-6805eed4="" fill="#2E601A" class="iconlinesvg-g iconlinesvg" transform="translate(31.62799072265625,81.66853523254395)"><g class="tp-name" transform="translate(0,0)"><g transform="translate(0, 12.191091252541437)"><g><g class="imagesvg"><g><rect fill="#2E601A" fill-opacity="0" stroke-width="2" x="0" y="0" width="51.582890293566535" height="48.702617494917135" class="image-rect"></rect> <svg x="0" y="0" width="51.582890293566535" height="48.702617494917135" filtersec="colorsb4197699638" class="image-svg-svg primary" style="overflow: visible;"><svg xmlns="http://www.w3.org/2000/svg" viewBox="0 0 98.5 93"><title>页面-1 (2)</title><g fill-rule="evenodd"><path d="M98.12 48h.38v45h-31V64.91c14.03-.85 25.77-7.62 30.62-16.91zM31 0v28.09C17 28.94 5.23 35.71.38 45H0V0z" fill="#333333"></path><path d="M45 33a59.71 59.71 0 0 1 15.5 2C43.28 39.64 31 51.77 31 66v27H0V65c.74-17.76 20.6-32 45-32z" fill="#2D5F1B"></path><path d="M98.5 0v28c-.72 17.76-20.58 32-45 32A59.71 59.71 0 0 1 38 58c17.22-4.63 29.5-16.76 29.5-31V0z" fill="#2D5F1B"></path></g></svg></svg> <!----></g></g></g></g><g transform="translate(56, 0)"><g data-gra="path-name" fill="#2E601A" transform="scale(1.4400000000000004)"><path d="M27.06-33.24L35.52-33.24L35.52 0L27.06 0L27.06-4.20Q25.44-2.04 22.83-0.81Q20.22 0.42 17.16 0.42L17.16 0.42Q13.26 0.42 10.26-1.23Q7.26-2.88 5.55-6.09Q3.84-9.30 3.84-13.74L3.84-13.74L3.84-33.24L12.24-33.24L12.24-14.94Q12.24-10.98 14.22-8.85Q16.20-6.72 19.62-6.72L19.62-6.72Q23.10-6.72 25.08-8.85Q27.06-10.98 27.06-14.94L27.06-14.94L27.06-33.24Z" transform="translate(-3.84, 41.879999999999995)"></path></g></g><g transform="translate(105, 0)"><g data-gra="path-name" fill="#2E601A" transform="scale(1.4400000000000004)"><path d="M45.42-33.72Q51.54-33.72 55.29-29.97Q59.04-26.22 59.04-19.50L59.04-19.50L59.04 0L50.64 0L50.64-18.36Q50.64-22.26 48.66-24.33Q46.68-26.40 43.26-26.40L43.26-26.40Q39.84-26.40 37.83-24.33Q35.82-22.26 35.82-18.36L35.82-18.36L35.82 0L27.42 0L27.42-18.36Q27.42-22.26 25.44-24.33Q23.46-26.40 20.04-26.40L20.04-26.40Q16.56-26.40 14.55-24.33Q12.54-22.26 12.54-18.36L12.54-18.36L12.54 0L4.14 0L4.14-33.24L12.54-33.24L12.54-29.22Q14.16-31.32 16.71-32.52Q19.26-33.72 22.32-33.72L22.32-33.72Q26.22-33.72 29.28-32.07Q32.34-30.42 34.02-27.36L34.02-27.36Q35.64-30.24 38.73-31.98Q41.82-33.72 45.42-33.72L45.42-33.72Z" transform="translate(-4.14, 41.879999999999995)"></path></g></g><g transform="translate(188, 0)"><g data-gra="path-name" fill="#2E601A" transform="scale(1.4400000000000004)"><path d="M27.06-33.24L35.52-33.24L35.52 0L27.06 0L27.06-4.20Q25.44-2.04 22.83-0.81Q20.22 0.42 17.16 0.42L17.16 0.42Q13.26 0.42 10.26-1.23Q7.26-2.88 5.55-6.09Q3.84-9.30 3.84-13.74L3.84-13.74L3.84-33.24L12.24-33.24L12.24-14.94Q12.24-10.98 14.22-8.85Q16.20-6.72 19.62-6.72L19.62-6.72Q23.10-6.72 25.08-8.85Q27.06-10.98 27.06-14.94L27.06-14.94L27.06-33.24Z" transform="translate(-3.84, 41.879999999999995)"></path></g></g><g transform="translate(237, 0)"><g data-gra="path-name" fill="#2E601A" transform="scale(1.4400000000000004)"><path d="M16.86 0.54Q12.78 0.54 9.54-0.93Q6.30-2.40 4.41-4.92Q2.52-7.44 2.34-10.50L2.34-10.50L10.80-10.50Q11.04-8.58 12.69-7.32Q14.34-6.06 16.80-6.06L16.80-6.06Q19.20-6.06 20.55-7.02Q21.90-7.98 21.90-9.48L21.90-9.48Q21.90-11.10 20.25-11.91Q18.60-12.72 15-13.68L15-13.68Q11.28-14.58 8.91-15.54Q6.54-16.50 4.83-18.48Q3.12-20.46 3.12-23.82L3.12-23.82Q3.12-26.58 4.71-28.86Q6.30-31.14 9.27-32.46Q12.24-33.78 16.26-33.78L16.26-33.78Q22.20-33.78 25.74-30.81Q29.28-27.84 29.64-22.80L29.64-22.80L21.60-22.80Q21.42-24.78 19.95-25.95Q18.48-27.12 16.02-27.12L16.02-27.12Q13.74-27.12 12.51-26.28Q11.28-25.44 11.28-23.94L11.28-23.94Q11.28-22.26 12.96-21.39Q14.64-20.52 18.18-19.62L18.18-19.62Q21.78-18.72 24.12-17.76Q26.46-16.80 28.17-14.79Q29.88-12.78 29.94-9.48L29.94-9.48Q29.94-6.60 28.35-4.32Q26.76-2.04 23.79-0.75Q20.82 0.54 16.86 0.54L16.86 0.54Z" transform="translate(-2.34, 41.879999999999995)"></path></g></g></g> <g data-gra="path-slogan" fill-rule="" class="tp-slogan" fill="#333" transform="translate(5,64.4207992553711)"><rect x="0" height="1" y="4.789999961853027" width="0.18701171875"></rect> <rect height="1" y="4.789999961853027" width="0.18701171875" x="266.5570068359375"></rect> <g transform="translate(3.18701171875,0)"><g transform="scale(1)"><path d="M7.24-8.20L7.63-7.11L7.58-7.09Q7.13-7.51 6.48-7.76Q5.84-8.02 5.07-8.02L5.07-8.02Q4.34-8.02 3.72-7.78Q3.11-7.55 2.66-7.11Q2.22-6.67 1.97-6.04Q1.73-5.40 1.73-4.58L1.73-4.58Q1.73-3.69 1.96-2.91Q2.20-2.13 2.66-1.56Q3.12-1.00 3.82-0.67Q4.51-0.35 5.44-0.35L5.44-0.35Q5.77-0.35 6.11-0.42Q6.44-0.49 6.75-0.62Q7.05-0.76 7.33-0.96Q7.60-1.15 7.82-1.41L7.82-1.41L7.89-1.37L7.42-0.17Q6.98 0 6.45 0.09Q5.92 0.18 5.38 0.18L5.38 0.18Q4.29 0.18 3.40-0.13Q2.50-0.45 1.85-1.02Q1.20-1.59 0.84-2.40Q0.48-3.21 0.48-4.19L0.48-4.19Q0.48-4.75 0.62-5.29Q0.77-5.82 1.04-6.31Q1.32-6.80 1.72-7.20Q2.13-7.61 2.65-7.91Q3.16-8.21 3.79-8.38Q4.41-8.54 5.14-8.54L5.14-8.54Q6.27-8.54 7.24-8.20L7.24-8.20ZM12.79-8.54L12.79-8.54Q13.77-8.54 14.60-8.22Q15.43-7.90 16.03-7.33Q16.63-6.75 16.97-5.94Q17.31-5.13 17.31-4.15L17.31-4.15Q17.31-3.60 17.19-3.06Q17.06-2.52 16.81-2.04Q16.56-1.56 16.20-1.15Q15.83-0.74 15.37-0.45Q14.90-0.15 14.34 0.01Q13.78 0.18 13.13 0.18L13.13 0.18Q12.15 0.18 11.32-0.13Q10.49-0.45 9.88-1.02Q9.28-1.59 8.94-2.40Q8.60-3.21 8.60-4.19L8.60-4.19Q8.60-4.75 8.73-5.29Q8.86-5.82 9.11-6.31Q9.36-6.80 9.72-7.20Q10.08-7.61 10.54-7.91Q11.01-8.21 11.58-8.38Q12.14-8.54 12.79-8.54ZM13.13-0.35L13.13-0.35Q13.78-0.35 14.31-0.58Q14.85-0.81 15.24-1.26Q15.63-1.71 15.85-2.35Q16.07-2.99 16.07-3.80L16.07-3.80Q16.07-4.71 15.86-5.48Q15.65-6.25 15.24-6.81Q14.83-7.38 14.22-7.70Q13.61-8.02 12.79-8.02L12.79-8.02Q12.14-8.02 11.60-7.78Q11.06-7.55 10.67-7.11Q10.28-6.67 10.07-6.04Q9.85-5.40 9.85-4.58L9.85-4.58Q9.85-3.69 10.05-2.91Q10.26-2.13 10.67-1.56Q11.08-1.00 11.70-0.67Q12.31-0.35 13.13-0.35ZM18.59-8.40L18.96-8.40L25.00-1.98L25.00-6.11Q25.00-6.60 24.98-6.98Q24.97-7.35 24.95-7.62Q24.93-7.89 24.89-8.07Q24.86-8.26 24.83-8.38L24.83-8.38L24.83-8.40L25.87-8.40L25.87-8.38Q25.83-8.26 25.80-8.07Q25.78-7.89 25.75-7.62Q25.73-7.35 25.72-6.98Q25.71-6.60 25.71-6.11L25.71-6.11L25.71 0.12L25.50 0.12L19.46-6.30L19.46-2.29Q19.46-1.79 19.48-1.42Q19.49-1.05 19.51-0.78Q19.54-0.51 19.56-0.33Q19.59-0.15 19.63-0.02L19.63-0.02L19.63 0L18.59 0L18.59-0.02Q18.62-0.15 18.65-0.33Q18.69-0.51 18.71-0.78Q18.73-1.05 18.74-1.42Q18.76-1.79 18.76-2.29L18.76-2.29L18.76-6.11Q18.76-6.60 18.74-6.98Q18.73-7.35 18.71-7.62Q18.69-7.89 18.65-8.07Q18.62-8.26 18.59-8.38L18.59-8.38L18.59-8.40ZM31.04-8.16L31.00-7.07L30.87-7.07Q30.83-7.20 30.72-7.37Q30.62-7.54 30.45-7.69Q30.29-7.84 30.05-7.94Q29.81-8.04 29.49-8.04L29.49-8.04Q29.20-8.04 28.98-7.95Q28.76-7.86 28.61-7.71Q28.46-7.55 28.38-7.33Q28.31-7.11 28.31-6.85L28.31-6.85Q28.31-6.43 28.54-6.04Q28.78-5.66 29.14-5.29Q29.50-4.91 29.91-4.54Q30.33-4.16 30.69-3.76Q31.04-3.35 31.28-2.91Q31.52-2.47 31.52-1.96L31.52-1.96Q31.52-1.58 31.39-1.19Q31.25-0.81 30.98-0.50Q30.70-0.20 30.27-0.01Q29.84 0.18 29.24 0.18L29.24 0.18Q28.90 0.18 28.60 0.12Q28.30 0.06 28.05-0.03Q27.79-0.12 27.59-0.23Q27.39-0.33 27.26-0.42L27.26-0.42L27.39-1.72L27.54-1.72Q27.60-1.44 27.75-1.19Q27.90-0.94 28.11-0.75Q28.32-0.56 28.60-0.45Q28.88-0.33 29.20-0.33L29.20-0.33Q29.50-0.33 29.74-0.42Q29.98-0.52 30.15-0.68Q30.32-0.84 30.41-1.06Q30.50-1.28 30.50-1.55L30.50-1.55Q30.50-1.92 30.36-2.23Q30.23-2.54 30.01-2.82Q29.79-3.11 29.51-3.37Q29.23-3.63 28.94-3.90Q28.65-4.17 28.37-4.45Q28.09-4.73 27.87-5.05Q27.65-5.37 27.52-5.73Q27.38-6.10 27.38-6.54L27.38-6.54Q27.38-7.00 27.56-7.37Q27.74-7.75 28.03-8.01Q28.33-8.27 28.71-8.41Q29.08-8.55 29.48-8.55L29.48-8.55Q29.77-8.55 30.02-8.51Q30.26-8.46 30.46-8.40Q30.66-8.33 30.80-8.27Q30.95-8.20 31.04-8.16L31.04-8.16ZM38.97-2.82L38.97-6.11Q38.97-6.60 38.96-6.98Q38.95-7.35 38.92-7.62Q38.90-7.89 38.87-8.07Q38.84-8.26 38.81-8.38L38.81-8.38L38.81-8.40L39.85-8.40L39.85-8.38Q39.81-8.26 39.78-8.07Q39.75-7.89 39.73-7.62Q39.71-7.35 39.69-6.98Q39.68-6.60 39.68-6.11L39.68-6.11L39.68-2.94Q39.68-2.10 39.44-1.51Q39.20-0.92 38.77-0.54Q38.34-0.16 37.75 0.01Q37.15 0.18 36.44 0.18L36.44 0.18Q35.73 0.18 35.12 0.02Q34.51-0.15 34.05-0.51Q33.60-0.88 33.34-1.46Q33.08-2.04 33.08-2.88L33.08-2.88L33.08-6.11Q33.08-6.60 33.07-6.98Q33.06-7.35 33.04-7.62Q33.01-7.89 32.98-8.07Q32.95-8.26 32.91-8.38L32.91-8.38L32.91-8.40L34.32-8.40L34.32-8.38Q34.28-8.26 34.25-8.07Q34.22-7.89 34.20-7.62Q34.17-7.35 34.16-6.98Q34.15-6.60 34.15-6.11L34.15-6.11L34.15-2.82Q34.15-2.12 34.36-1.67Q34.56-1.21 34.90-0.95Q35.24-0.68 35.68-0.57Q36.11-0.47 36.56-0.47L36.56-0.47Q37.01-0.47 37.45-0.57Q37.88-0.68 38.22-0.95Q38.55-1.21 38.76-1.67Q38.97-2.12 38.97-2.82L38.97-2.82ZM42.71-6.11L42.71-0.52Q43.41-0.52 43.99-0.57Q44.57-0.63 45-0.71L45-0.71Q45.50-0.79 45.92-0.90L45.92-0.90L45.75 0.05Q45.68 0.04 45.54 0.04Q45.40 0.03 45.23 0.02Q45.05 0.02 44.86 0.01Q44.67 0.01 44.50 0.01Q44.33 0.01 44.20 0.00Q44.07 0 44.01 0L44.01 0L41.48 0L41.48-0.02Q41.51-0.15 41.55-0.33Q41.58-0.51 41.60-0.78Q41.63-1.05 41.64-1.42Q41.65-1.79 41.65-2.29L41.65-2.29L41.65-6.11Q41.65-6.60 41.64-6.98Q41.63-7.35 41.60-7.62Q41.58-7.89 41.55-8.07Q41.51-8.26 41.48-8.38L41.48-8.38L41.48-8.40L42.88-8.40L42.88-8.38Q42.85-8.26 42.82-8.07Q42.79-7.89 42.76-7.62Q42.74-7.35 42.73-6.98Q42.71-6.60 42.71-6.11L42.71-6.11ZM48.68-2.29L48.68-7.89Q47.99-7.89 47.43-7.83Q46.88-7.76 46.47-7.69L46.47-7.69Q46.00-7.61 45.63-7.50L45.63-7.50L45.80-8.45Q45.87-8.44 46.01-8.44Q46.15-8.43 46.33-8.43Q46.50-8.42 46.69-8.42Q46.88-8.41 47.05-8.41Q47.22-8.41 47.35-8.41Q47.48-8.40 47.54-8.40L47.54-8.40L50.89-8.40Q50.95-8.40 51.08-8.41Q51.21-8.41 51.38-8.41Q51.55-8.41 51.74-8.42Q51.93-8.42 52.10-8.43Q52.28-8.43 52.42-8.44Q52.56-8.44 52.63-8.45L52.63-8.45L52.80-7.50Q52.42-7.61 51.96-7.69L51.96-7.69Q51.55-7.76 50.99-7.83Q50.44-7.89 49.75-7.89L49.75-7.89L49.75-2.29Q49.75-1.79 49.76-1.42Q49.78-1.05 49.80-0.78Q49.82-0.51 49.85-0.33Q49.88-0.15 49.92-0.02L49.92-0.02L49.92 0L48.52 0L48.52-0.02Q48.55-0.15 48.58-0.33Q48.61-0.51 48.63-0.78Q48.66-1.05 48.67-1.42Q48.68-1.79 48.68-2.29L48.68-2.29ZM53.69 0L53.69-0.02Q53.72-0.15 53.75-0.33Q53.78-0.51 53.81-0.78Q53.83-1.05 53.84-1.42Q53.85-1.79 53.85-2.29L53.85-2.29L53.85-6.11Q53.85-6.60 53.84-6.98Q53.83-7.35 53.81-7.62Q53.78-7.89 53.75-8.07Q53.72-8.26 53.69-8.38L53.69-8.38L53.69-8.40L55.09-8.40L55.09-8.38Q55.05-8.26 55.02-8.07Q54.99-7.89 54.97-7.62Q54.95-7.35 54.93-6.98Q54.92-6.60 54.92-6.11L54.92-6.11L54.92-2.29Q54.92-1.79 54.93-1.42Q54.95-1.05 54.97-0.78Q54.99-0.51 55.02-0.33Q55.05-0.15 55.09-0.02L55.09-0.02L55.09 0L53.69 0ZM56.77-8.40L57.15-8.40L63.18-1.98L63.18-6.11Q63.18-6.60 63.17-6.98Q63.16-7.35 63.13-7.62Q63.11-7.89 63.08-8.07Q63.05-8.26 63.01-8.38L63.01-8.38L63.01-8.40L64.05-8.40L64.05-8.38Q64.02-8.26 63.99-8.07Q63.96-7.89 63.94-7.62Q63.91-7.35 63.90-6.98Q63.89-6.60 63.89-6.11L63.89-6.11L63.89 0.12L63.69 0.12L57.65-6.30L57.65-2.29Q57.65-1.79 57.66-1.42Q57.67-1.05 57.70-0.78Q57.72-0.51 57.75-0.33Q57.78-0.15 57.81-0.02L57.81-0.02L57.81 0L56.77 0L56.77-0.02Q56.81-0.15 56.84-0.33Q56.87-0.51 56.89-0.78Q56.92-1.05 56.93-1.42Q56.94-1.79 56.94-2.29L56.94-2.29L56.94-6.11Q56.94-6.60 56.93-6.98Q56.92-7.35 56.89-7.62Q56.87-7.89 56.84-8.07Q56.81-8.26 56.77-8.38L56.77-8.38L56.77-8.40ZM73.08-1.22L73.08-0.98Q73.08-0.92 73.06-0.85Q73.05-0.78 73.00-0.73L73.00-0.73Q72.73-0.53 72.42-0.37Q72.12-0.20 71.76-0.08Q71.40 0.05 70.99 0.11Q70.58 0.18 70.10 0.18L70.10 0.18Q69.04 0.18 68.16-0.13Q67.28-0.45 66.65-1.02Q66.02-1.59 65.67-2.40Q65.33-3.21 65.33-4.19L65.33-4.19Q65.33-4.75 65.47-5.29Q65.61-5.82 65.89-6.31Q66.16-6.80 66.57-7.20Q66.97-7.61 67.49-7.91Q68.01-8.21 68.63-8.38Q69.26-8.54 69.98-8.54L69.98-8.54Q70.27-8.54 70.56-8.52Q70.85-8.49 71.14-8.44Q71.43-8.39 71.69-8.32Q71.96-8.25 72.20-8.16L72.20-8.16L72.60-7.08L72.55-7.05Q72.32-7.26 72.02-7.44Q71.72-7.61 71.38-7.74Q71.04-7.87 70.67-7.94Q70.30-8.02 69.92-8.02L69.92-8.02Q69.18-8.02 68.57-7.78Q67.95-7.55 67.51-7.11Q67.07-6.67 66.82-6.04Q66.57-5.40 66.57-4.58L66.57-4.58Q66.57-3.69 66.81-2.92Q67.04-2.15 67.51-1.59Q67.97-1.03 68.66-0.71Q69.36-0.39 70.28-0.39L70.28-0.39Q70.69-0.39 71.02-0.45Q71.34-0.52 71.56-0.61Q71.78-0.71 71.90-0.82Q72.01-0.94 72.01-1.03L72.01-1.03L72.01-1.26Q72.01-1.67 72-1.97Q71.99-2.27 71.96-2.49Q71.94-2.71 71.91-2.87Q71.88-3.02 71.84-3.16L71.84-3.16L71.84-3.18L73.25-3.18L73.25-3.16Q73.21-3.04 73.18-2.87Q73.15-2.70 73.13-2.47Q73.10-2.24 73.09-1.94Q73.08-1.63 73.08-1.22L73.08-1.22ZM79.42-4.43L79.42-2.29Q79.42-1.79 79.44-1.42Q79.45-1.05 79.47-0.78Q79.49-0.51 79.53-0.33Q79.56-0.15 79.59-0.02L79.59-0.02L79.59 0L78.19 0L78.19-0.02Q78.22-0.15 78.25-0.33Q78.29-0.51 78.31-0.78Q78.33-1.05 78.35-1.42Q78.36-1.79 78.36-2.29L78.36-2.29L78.36-6.11Q78.36-6.60 78.35-6.98Q78.33-7.35 78.31-7.62Q78.29-7.89 78.25-8.07Q78.22-8.26 78.19-8.38L78.19-8.38L78.19-8.40Q78.67-8.40 79.17-8.41Q79.67-8.41 80.14-8.41Q80.61-8.41 81.03-8.42Q81.45-8.43 81.79-8.44Q82.13-8.45 82.37-8.46Q82.60-8.48 82.70-8.50L82.70-8.50L82.41-7.72Q82.22-7.77 81.96-7.81L81.96-7.81Q81.74-7.85 81.42-7.88Q81.10-7.91 80.68-7.91L80.68-7.91Q80.54-7.91 80.33-7.90Q80.12-7.89 79.92-7.88L79.92-7.88Q79.68-7.87 79.42-7.86L79.42-7.86L79.42-4.90Q80.03-4.90 80.53-4.93Q81.04-4.96 81.40-4.99L81.40-4.99Q81.82-5.03 82.16-5.07L82.16-5.07L81.98-4.22Q81.54-4.28 81.09-4.32L81.09-4.32Q80.71-4.37 80.26-4.40Q79.82-4.43 79.42-4.43L79.42-4.43ZM87.61-8.54L87.61-8.54Q88.59-8.54 89.42-8.22Q90.25-7.90 90.85-7.33Q91.45-6.75 91.79-5.94Q92.13-5.13 92.13-4.15L92.13-4.15Q92.13-3.60 92.00-3.06Q91.88-2.52 91.63-2.04Q91.38-1.56 91.01-1.15Q90.65-0.74 90.18-0.45Q89.72-0.15 89.16 0.01Q88.59 0.18 87.94 0.18L87.94 0.18Q86.96 0.18 86.14-0.13Q85.31-0.45 84.70-1.02Q84.10-1.59 83.76-2.40Q83.42-3.21 83.42-4.19L83.42-4.19Q83.42-4.75 83.55-5.29Q83.68-5.82 83.93-6.31Q84.18-6.80 84.54-7.20Q84.90-7.61 85.36-7.91Q85.83-8.21 86.39-8.38Q86.96-8.54 87.61-8.54ZM87.94-0.35L87.94-0.35Q88.59-0.35 89.13-0.58Q89.67-0.81 90.06-1.26Q90.45-1.71 90.67-2.35Q90.88-2.99 90.88-3.80L90.88-3.80Q90.88-4.71 90.68-5.48Q90.47-6.25 90.06-6.81Q89.65-7.38 89.04-7.70Q88.42-8.02 87.61-8.02L87.61-8.02Q86.96-8.02 86.42-7.78Q85.88-7.55 85.49-7.11Q85.10-6.67 84.88-6.04Q84.67-5.40 84.67-4.58L84.67-4.58Q84.67-3.69 84.87-2.91Q85.08-2.13 85.49-1.56Q85.90-1.00 86.51-0.67Q87.13-0.35 87.94-0.35ZM94.69-3.61L94.69-2.29Q94.69-1.79 94.70-1.42Q94.72-1.05 94.74-0.78Q94.76-0.51 94.79-0.33Q94.82-0.15 94.86-0.02L94.86-0.02L94.86 0L93.45 0L93.45-0.02Q93.49-0.15 93.52-0.33Q93.55-0.51 93.57-0.78Q93.60-1.05 93.61-1.42Q93.62-1.79 93.62-2.29L93.62-2.29L93.62-6.11Q93.62-6.60 93.61-6.98Q93.60-7.35 93.57-7.62Q93.55-7.89 93.52-8.07Q93.49-8.26 93.45-8.38L93.45-8.38L93.45-8.40Q93.57-8.39 93.70-8.38L93.70-8.38Q93.81-8.37 93.95-8.36Q94.08-8.36 94.23-8.36L94.23-8.36Q94.46-8.36 94.85-8.42Q95.24-8.47 95.84-8.47L95.84-8.47Q96.40-8.47 96.88-8.32Q97.36-8.17 97.71-7.88Q98.06-7.58 98.26-7.16Q98.46-6.73 98.46-6.19L98.46-6.19Q98.46-5.77 98.35-5.41Q98.24-5.05 98.04-4.76Q97.85-4.46 97.57-4.24Q97.29-4.01 96.96-3.86L96.96-3.86L99.01-0.97Q99.16-0.76 99.30-0.60Q99.43-0.44 99.55-0.33Q99.67-0.22 99.78-0.14Q99.89-0.07 100.01-0.02L100.01-0.02L100.01 0L98.31 0Q98.30-0.11 98.20-0.30Q98.10-0.48 97.97-0.66L97.97-0.66L95.90-3.59Q95.61-3.56 95.31-3.56Q95.00-3.56 94.69-3.61L94.69-3.61ZM94.69-7.95L94.69-4.07Q95.26-3.96 95.74-4.04Q96.22-4.11 96.56-4.37Q96.90-4.63 97.09-5.07Q97.28-5.51 97.28-6.15L97.28-6.15Q97.28-6.59 97.18-6.94Q97.08-7.30 96.89-7.55Q96.69-7.80 96.39-7.94Q96.09-8.07 95.70-8.07L95.70-8.07Q95.44-8.07 95.26-8.05Q95.07-8.03 94.94-8.01L94.94-8.01Q94.79-7.98 94.69-7.95L94.69-7.95ZM106.35-2.29L106.35-7.89Q105.66-7.89 105.10-7.83Q104.54-7.76 104.14-7.69L104.14-7.69Q103.67-7.61 103.30-7.50L103.30-7.50L103.47-8.45Q103.54-8.44 103.68-8.44Q103.82-8.43 104.00-8.43Q104.17-8.42 104.36-8.42Q104.55-8.41 104.72-8.41Q104.89-8.41 105.02-8.41Q105.15-8.40 105.21-8.40L105.21-8.40L108.56-8.40Q108.62-8.40 108.75-8.41Q108.88-8.41 109.05-8.41Q109.22-8.41 109.41-8.42Q109.60-8.42 109.77-8.43Q109.95-8.43 110.09-8.44Q110.23-8.44 110.30-8.45L110.30-8.45L110.47-7.50Q110.09-7.61 109.62-7.69L109.62-7.69Q109.22-7.76 108.66-7.83Q108.11-7.89 107.41-7.89L107.41-7.89L107.41-2.29Q107.41-1.79 107.43-1.42Q107.44-1.05 107.46-0.78Q107.48-0.51 107.52-0.33Q107.55-0.15 107.58-0.02L107.58-0.02L107.58 0L106.18 0L106.18-0.02Q106.22-0.15 106.25-0.33Q106.28-0.51 106.30-0.78Q106.32-1.05 106.34-1.42Q106.35-1.79 106.35-2.29L106.35-2.29ZM115.02-8.54L115.02-8.54Q116.00-8.54 116.83-8.22Q117.66-7.90 118.26-7.33Q118.86-6.75 119.20-5.94Q119.54-5.13 119.54-4.15L119.54-4.15Q119.54-3.60 119.41-3.06Q119.29-2.52 119.04-2.04Q118.79-1.56 118.42-1.15Q118.06-0.74 117.59-0.45Q117.13-0.15 116.57 0.01Q116.00 0.18 115.35 0.18L115.35 0.18Q114.38 0.18 113.55-0.13Q112.72-0.45 112.11-1.02Q111.51-1.59 111.17-2.40Q110.83-3.21 110.83-4.19L110.83-4.19Q110.83-4.75 110.96-5.29Q111.09-5.82 111.34-6.31Q111.59-6.80 111.95-7.20Q112.31-7.61 112.77-7.91Q113.24-8.21 113.80-8.38Q114.37-8.54 115.02-8.54ZM115.35-0.35L115.35-0.35Q116.00-0.35 116.54-0.58Q117.08-0.81 117.47-1.26Q117.86-1.71 118.08-2.35Q118.29-2.99 118.29-3.80L118.29-3.80Q118.29-4.71 118.09-5.48Q117.88-6.25 117.47-6.81Q117.06-7.38 116.45-7.70Q115.83-8.02 115.02-8.02L115.02-8.02Q114.37-8.02 113.83-7.78Q113.29-7.55 112.90-7.11Q112.51-6.67 112.29-6.04Q112.08-5.40 112.08-4.58L112.08-4.58Q112.08-3.69 112.28-2.91Q112.49-2.13 112.90-1.56Q113.31-1.00 113.92-0.67Q114.54-0.35 115.35-0.35ZM126.87-2.82L126.87-6.11Q126.87-6.60 126.86-6.98Q126.85-7.35 126.83-7.62Q126.80-7.89 126.77-8.07Q126.74-8.26 126.71-8.38L126.71-8.38L126.71-8.40L127.75-8.40L127.75-8.38Q127.72-8.26 127.68-8.07Q127.65-7.89 127.63-7.62Q127.61-7.35 127.60-6.98Q127.58-6.60 127.58-6.11L127.58-6.11L127.58-2.94Q127.58-2.10 127.34-1.51Q127.10-0.92 126.67-0.54Q126.25-0.16 125.65 0.01Q125.05 0.18 124.34 0.18L124.34 0.18Q123.63 0.18 123.02 0.02Q122.41-0.15 121.95-0.51Q121.50-0.88 121.24-1.46Q120.98-2.04 120.98-2.88L120.98-2.88L120.98-6.11Q120.98-6.60 120.97-6.98Q120.96-7.35 120.94-7.62Q120.91-7.89 120.88-8.07Q120.85-8.26 120.81-8.38L120.81-8.38L120.81-8.40L122.22-8.40L122.22-8.38Q122.19-8.26 122.15-8.07Q122.12-7.89 122.10-7.62Q122.07-7.35 122.06-6.98Q122.05-6.60 122.05-6.11L122.05-6.11L122.05-2.82Q122.05-2.12 122.26-1.67Q122.47-1.21 122.81-0.95Q123.15-0.68 123.58-0.57Q124.01-0.47 124.46-0.47L124.46-0.47Q124.92-0.47 125.35-0.57Q125.78-0.68 126.12-0.95Q126.46-1.21 126.67-1.67Q126.87-2.12 126.87-2.82L126.87-2.82ZM130.62-3.61L130.62-2.29Q130.62-1.79 130.63-1.42Q130.65-1.05 130.67-0.78Q130.69-0.51 130.72-0.33Q130.75-0.15 130.79-0.02L130.79-0.02L130.79 0L129.38 0L129.38-0.02Q129.42-0.15 129.45-0.33Q129.48-0.51 129.50-0.78Q129.53-1.05 129.54-1.42Q129.55-1.79 129.55-2.29L129.55-2.29L129.55-6.11Q129.55-6.60 129.54-6.98Q129.53-7.35 129.50-7.62Q129.48-7.89 129.45-8.07Q129.42-8.26 129.38-8.38L129.38-8.38L129.38-8.40Q129.50-8.39 129.63-8.38L129.63-8.38Q129.74-8.37 129.88-8.36Q130.01-8.36 130.16-8.36L130.16-8.36Q130.39-8.36 130.78-8.42Q131.17-8.47 131.77-8.47L131.77-8.47Q132.33-8.47 132.81-8.32Q133.29-8.17 133.64-7.88Q133.99-7.58 134.19-7.16Q134.38-6.73 134.38-6.19L134.38-6.19Q134.38-5.77 134.28-5.41Q134.17-5.05 133.97-4.76Q133.78-4.46 133.50-4.24Q133.22-4.01 132.88-3.86L132.88-3.86L134.94-0.97Q135.09-0.76 135.23-0.60Q135.36-0.44 135.48-0.33Q135.60-0.22 135.71-0.14Q135.82-0.07 135.94-0.02L135.94-0.02L135.94 0L134.24 0Q134.23-0.11 134.13-0.30Q134.03-0.48 133.90-0.66L133.90-0.66L131.83-3.59Q131.54-3.56 131.24-3.56Q130.93-3.56 130.62-3.61L130.62-3.61ZM130.62-7.95L130.62-4.07Q131.19-3.96 131.67-4.04Q132.15-4.11 132.49-4.37Q132.83-4.63 133.02-5.07Q133.21-5.51 133.21-6.15L133.21-6.15Q133.21-6.59 133.11-6.94Q133.01-7.30 132.82-7.55Q132.62-7.80 132.32-7.94Q132.02-8.07 131.63-8.07L131.63-8.07Q131.37-8.07 131.19-8.05Q131.00-8.03 130.87-8.01L130.87-8.01Q130.72-7.98 130.62-7.95L130.62-7.95ZM136.52 0L136.52-0.02Q136.56-0.15 136.59-0.33Q136.62-0.51 136.64-0.78Q136.66-1.05 136.68-1.42Q136.69-1.79 136.69-2.29L136.69-2.29L136.69-6.11Q136.69-6.60 136.68-6.98Q136.66-7.35 136.64-7.62Q136.62-7.89 136.59-8.07Q136.56-8.26 136.52-8.38L136.52-8.38L136.52-8.40L137.92-8.40L137.92-8.38Q137.89-8.26 137.86-8.07Q137.82-7.89 137.80-7.62Q137.78-7.35 137.77-6.98Q137.75-6.60 137.75-6.11L137.75-6.11L137.75-2.29Q137.75-1.79 137.77-1.42Q137.78-1.05 137.80-0.78Q137.82-0.51 137.86-0.33Q137.89-0.15 137.92-0.02L137.92-0.02L137.92 0L136.52 0ZM143.20-8.16L143.16-7.07L143.03-7.07Q142.98-7.20 142.88-7.37Q142.78-7.54 142.61-7.69Q142.44-7.84 142.20-7.94Q141.97-8.04 141.64-8.04L141.64-8.04Q141.36-8.04 141.13-7.95Q140.91-7.86 140.76-7.71Q140.61-7.55 140.54-7.33Q140.46-7.11 140.46-6.85L140.46-6.85Q140.46-6.43 140.70-6.04Q140.94-5.66 141.29-5.29Q141.65-4.91 142.07-4.54Q142.48-4.16 142.84-3.76Q143.20-3.35 143.43-2.91Q143.67-2.47 143.67-1.96L143.67-1.96Q143.67-1.58 143.54-1.19Q143.41-0.81 143.13-0.50Q142.86-0.20 142.42-0.01Q141.99 0.18 141.39 0.18L141.39 0.18Q141.06 0.18 140.76 0.12Q140.46 0.06 140.20-0.03Q139.95-0.12 139.74-0.23Q139.54-0.33 139.41-0.42L139.41-0.42L139.55-1.72L139.69-1.72Q139.76-1.44 139.90-1.19Q140.05-0.94 140.26-0.75Q140.48-0.56 140.75-0.45Q141.03-0.33 141.36-0.33L141.36-0.33Q141.66-0.33 141.89-0.42Q142.13-0.52 142.30-0.68Q142.47-0.84 142.56-1.06Q142.65-1.28 142.65-1.55L142.65-1.55Q142.65-1.92 142.52-2.23Q142.38-2.54 142.16-2.82Q141.94-3.11 141.67-3.37Q141.39-3.63 141.09-3.90Q140.80-4.17 140.52-4.45Q140.24-4.73 140.02-5.05Q139.80-5.37 139.67-5.73Q139.54-6.10 139.54-6.54L139.54-6.54Q139.54-7.00 139.71-7.37Q139.89-7.75 140.19-8.01Q140.48-8.27 140.86-8.41Q141.23-8.55 141.63-8.55L141.63-8.55Q141.93-8.55 142.17-8.51Q142.42-8.46 142.61-8.40Q142.81-8.33 142.96-8.27Q143.10-8.20 143.20-8.16L143.20-8.16ZM144.70 0L144.70-0.02Q144.76-0.12 144.84-0.30Q144.93-0.49 144.97-0.77L144.97-0.77Q145.04-1.18 145.12-1.69Q145.20-2.20 145.28-2.77Q145.37-3.33 145.45-3.92Q145.54-4.51 145.61-5.08Q145.69-5.65 145.77-6.18Q145.84-6.71 145.90-7.15Q145.96-7.59 146.00-7.91Q146.03-8.24 146.05-8.40L146.05-8.40L146.79-8.40L150.48-1.51L154.14-8.40L154.69-8.40L155.65-1.44Q155.70-1.11 155.74-0.88Q155.79-0.64 155.84-0.48Q155.88-0.31 155.93-0.20Q155.97-0.09 156.01-0.02L156.01-0.02L156.01 0L154.54 0L154.54-0.02Q154.56-0.09 154.59-0.23Q154.62-0.38 154.62-0.59L154.62-0.59Q154.62-0.66 154.61-0.74Q154.61-0.82 154.59-0.91L154.59-0.91L153.85-6.53L150.39-0.02L149.99-0.07L146.51-6.59Q146.30-5.20 146.15-4.02L146.15-4.02Q146.09-3.52 146.02-3.01Q145.96-2.51 145.91-2.08Q145.86-1.65 145.83-1.32Q145.80-0.98 145.80-0.83L145.80-0.83Q145.80-0.63 145.81-0.47Q145.82-0.32 145.83-0.22L145.83-0.22Q145.85-0.09 145.87 0L145.87 0L144.70 0ZM167.61-3.15L167.61-3.15Q167.40-1.98 166.69-1.18L166.69-1.18Q167.29-0.58 167.91-0.07Q168.54 0.43 169.15 0.81Q169.75 1.18 170.31 1.39Q170.88 1.61 171.35 1.61L171.35 1.61Q171.53 1.61 171.72 1.57L171.72 1.57L171.72 1.71Q171.65 1.73 171.54 1.79Q171.42 1.84 171.25 1.89Q171.09 1.93 170.86 1.97Q170.64 2.00 170.35 2.00L170.35 2.00Q169.89 2.00 169.36 1.81Q168.83 1.62 168.26 1.29Q167.70 0.95 167.11 0.49Q166.53 0.02 165.97-0.53L165.97-0.53Q165.46-0.18 164.85 0.01Q164.24 0.19 163.51 0.19L163.51 0.19Q162.86 0.19 162.33 0.03Q161.81-0.13 161.44-0.44Q161.08-0.74 160.88-1.18Q160.69-1.61 160.69-2.15L160.69-2.15Q160.69-2.67 160.88-3.07Q161.07-3.47 161.39-3.79Q161.70-4.11 162.11-4.38Q162.51-4.64 162.93-4.89L162.93-4.89Q162.76-5.33 162.67-5.74Q162.57-6.16 162.57-6.54L162.57-6.54Q162.57-7.00 162.72-7.37Q162.87-7.75 163.13-8.00Q163.39-8.26 163.74-8.40Q164.09-8.54 164.48-8.54L164.48-8.54Q164.78-8.54 165.04-8.46Q165.29-8.38 165.48-8.22Q165.67-8.06 165.79-7.82Q165.90-7.58 165.90-7.26L165.90-7.26Q165.90-6.86 165.73-6.54Q165.56-6.23 165.29-5.96Q165.02-5.70 164.67-5.47Q164.31-5.24 163.94-5.03L163.94-5.03Q164.13-4.59 164.39-4.14Q164.65-3.69 164.96-3.24Q165.27-2.79 165.63-2.36Q165.98-1.92 166.37-1.51L166.37-1.51Q166.65-1.89 166.81-2.38Q166.97-2.87 166.97-3.45L166.97-3.45Q166.97-3.94 166.91-4.27Q166.86-4.60 166.80-4.83L166.80-4.83L166.80-4.86L167.85-4.86L167.85-4.83Q167.81-4.69 167.79-4.52Q167.77-4.35 167.75-4.14Q167.72-3.93 167.70-3.68Q167.67-3.43 167.61-3.15ZM163.95-0.33L163.95-0.33Q164.43-0.33 164.87-0.46Q165.30-0.59 165.67-0.84L165.67-0.84Q165.27-1.26 164.89-1.71Q164.52-2.16 164.19-2.62Q163.86-3.09 163.58-3.56Q163.31-4.03 163.10-4.49L163.10-4.49Q162.83-4.30 162.59-4.10Q162.35-3.89 162.18-3.64Q162-3.40 161.90-3.11Q161.79-2.82 161.79-2.47L161.79-2.47Q161.79-2.02 161.96-1.62Q162.12-1.23 162.40-0.94Q162.69-0.66 163.09-0.50Q163.48-0.33 163.95-0.33ZM163.51-6.85L163.51-6.85Q163.51-6.51 163.59-6.15Q163.66-5.79 163.80-5.40L163.80-5.40Q164.09-5.58 164.33-5.78Q164.58-5.97 164.77-6.20Q164.95-6.42 165.06-6.68Q165.16-6.94 165.16-7.25L165.16-7.25Q165.16-7.42 165.12-7.58Q165.08-7.73 164.99-7.85Q164.90-7.97 164.76-8.04Q164.63-8.11 164.44-8.11L164.44-8.11Q163.97-8.11 163.74-7.78Q163.51-7.44 163.51-6.85ZM177.30-8.16L177.26-7.07L177.13-7.07Q177.08-7.20 176.98-7.37Q176.88-7.54 176.71-7.69Q176.54-7.84 176.31-7.94Q176.07-8.04 175.75-8.04L175.75-8.04Q175.46-8.04 175.24-7.95Q175.01-7.86 174.86-7.71Q174.71-7.55 174.64-7.33Q174.56-7.11 174.56-6.85L174.56-6.85Q174.56-6.43 174.80-6.04Q175.04-5.66 175.39-5.29Q175.75-4.91 176.17-4.54Q176.58-4.16 176.94-3.76Q177.30-3.35 177.54-2.91Q177.77-2.47 177.77-1.96L177.77-1.96Q177.77-1.58 177.64-1.19Q177.51-0.81 177.23-0.50Q176.96-0.20 176.53-0.01Q176.09 0.18 175.49 0.18L175.49 0.18Q175.16 0.18 174.86 0.12Q174.56 0.06 174.30-0.03Q174.05-0.12 173.84-0.23Q173.64-0.33 173.51-0.42L173.51-0.42L173.65-1.72L173.79-1.72Q173.86-1.44 174.01-1.19Q174.15-0.94 174.37-0.75Q174.58-0.56 174.86-0.45Q175.13-0.33 175.46-0.33L175.46-0.33Q175.76-0.33 176.00-0.42Q176.23-0.52 176.40-0.68Q176.57-0.84 176.66-1.06Q176.75-1.28 176.75-1.55L176.75-1.55Q176.75-1.92 176.62-2.23Q176.48-2.54 176.26-2.82Q176.04-3.11 175.77-3.37Q175.49-3.63 175.20-3.90Q174.90-4.17 174.62-4.45Q174.35-4.73 174.13-5.05Q173.91-5.37 173.77-5.73Q173.64-6.10 173.64-6.54L173.64-6.54Q173.64-7.00 173.82-7.37Q173.99-7.75 174.29-8.01Q174.59-8.27 174.96-8.41Q175.34-8.55 175.73-8.55L175.73-8.55Q176.03-8.55 176.27-8.51Q176.52-8.46 176.72-8.40Q176.91-8.33 177.06-8.27Q177.21-8.20 177.30-8.16L177.30-8.16ZM185.23-2.82L185.23-6.11Q185.23-6.60 185.21-6.98Q185.20-7.35 185.18-7.62Q185.16-7.89 185.13-8.07Q185.10-8.26 185.06-8.38L185.06-8.38L185.06-8.40L186.11-8.40L186.11-8.38Q186.07-8.26 186.04-8.07Q186.01-7.89 185.99-7.62Q185.96-7.35 185.95-6.98Q185.94-6.60 185.94-6.11L185.94-6.11L185.94-2.94Q185.94-2.10 185.70-1.51Q185.46-0.92 185.03-0.54Q184.60-0.16 184.00 0.01Q183.40 0.18 182.70 0.18L182.70 0.18Q181.99 0.18 181.37 0.02Q180.76-0.15 180.31-0.51Q179.85-0.88 179.60-1.46Q179.34-2.04 179.34-2.88L179.34-2.88L179.34-6.11Q179.34-6.60 179.33-6.98Q179.31-7.35 179.29-7.62Q179.27-7.89 179.24-8.07Q179.20-8.26 179.17-8.38L179.17-8.38L179.17-8.40L180.57-8.40L180.57-8.38Q180.54-8.26 180.51-8.07Q180.47-7.89 180.45-7.62Q180.43-7.35 180.42-6.98Q180.40-6.60 180.40-6.11L180.40-6.11L180.40-2.82Q180.40-2.12 180.61-1.67Q180.82-1.21 181.16-0.95Q181.50-0.68 181.93-0.57Q182.37-0.47 182.82-0.47L182.82-0.47Q183.27-0.47 183.70-0.57Q184.14-0.68 184.47-0.95Q184.81-1.21 185.02-1.67Q185.23-2.12 185.23-2.82L185.23-2.82ZM191.28-8.16L191.24-7.07L191.11-7.07Q191.06-7.20 190.96-7.37Q190.86-7.54 190.69-7.69Q190.52-7.84 190.29-7.94Q190.05-8.04 189.73-8.04L189.73-8.04Q189.44-8.04 189.22-7.95Q188.99-7.86 188.84-7.71Q188.70-7.55 188.62-7.33Q188.54-7.11 188.54-6.85L188.54-6.85Q188.54-6.43 188.78-6.04Q189.02-5.66 189.38-5.29Q189.73-4.91 190.15-4.54Q190.56-4.16 190.92-3.76Q191.28-3.35 191.52-2.91Q191.75-2.47 191.75-1.96L191.75-1.96Q191.75-1.58 191.62-1.19Q191.49-0.81 191.21-0.50Q190.94-0.20 190.51-0.01Q190.07 0.18 189.47 0.18L189.47 0.18Q189.14 0.18 188.84 0.12Q188.54 0.06 188.28-0.03Q188.03-0.12 187.83-0.23Q187.62-0.33 187.49-0.42L187.49-0.42L187.63-1.72L187.78-1.72Q187.84-1.44 187.99-1.19Q188.13-0.94 188.35-0.75Q188.56-0.56 188.84-0.45Q189.11-0.33 189.44-0.33L189.44-0.33Q189.74-0.33 189.98-0.42Q190.21-0.52 190.38-0.68Q190.55-0.84 190.64-1.06Q190.73-1.28 190.73-1.55L190.73-1.55Q190.73-1.92 190.60-2.23Q190.46-2.54 190.25-2.82Q190.03-3.11 189.75-3.37Q189.47-3.63 189.18-3.90Q188.88-4.17 188.60-4.45Q188.33-4.73 188.11-5.05Q187.89-5.37 187.75-5.73Q187.62-6.10 187.62-6.54L187.62-6.54Q187.62-7.00 187.80-7.37Q187.97-7.75 188.27-8.01Q188.57-8.27 188.94-8.41Q189.32-8.55 189.71-8.55L189.71-8.55Q190.01-8.55 190.25-8.51Q190.50-8.46 190.70-8.40Q190.89-8.33 191.04-8.27Q191.19-8.20 191.28-8.16L191.28-8.16ZM195.40-2.29L195.40-7.89Q194.71-7.89 194.16-7.83Q193.60-7.76 193.20-7.69L193.20-7.69Q192.73-7.61 192.36-7.50L192.36-7.50L192.53-8.45Q192.60-8.44 192.74-8.44Q192.88-8.43 193.05-8.43Q193.22-8.42 193.42-8.42Q193.61-8.41 193.78-8.41Q193.95-8.41 194.08-8.41Q194.21-8.40 194.27-8.40L194.27-8.40L197.61-8.40Q197.67-8.40 197.80-8.41Q197.94-8.41 198.11-8.41Q198.28-8.41 198.47-8.42Q198.66-8.42 198.83-8.43Q199.00-8.43 199.14-8.44Q199.28-8.44 199.35-8.45L199.35-8.45L199.52-7.50Q199.15-7.61 198.68-7.69L198.68-7.69Q198.28-7.76 197.72-7.83Q197.16-7.89 196.47-7.89L196.47-7.89L196.47-2.29Q196.47-1.79 196.49-1.42Q196.50-1.05 196.52-0.78Q196.54-0.51 196.57-0.33Q196.61-0.15 196.64-0.02L196.64-0.02L196.64 0L195.24 0L195.24-0.02Q195.28-0.15 195.30-0.33Q195.33-0.51 195.36-0.78Q195.38-1.05 195.39-1.42Q195.40-1.79 195.40-2.29L195.40-2.29ZM207.49 0L205.88 0L205.88-0.02Q205.89-0.05 205.90-0.11Q205.90-0.17 205.90-0.22L205.90-0.22Q205.90-0.40 205.85-0.62Q205.80-0.84 205.66-1.17L205.66-1.17L204.96-2.76Q204.63-2.77 204.08-2.77Q203.54-2.77 202.90-2.77L202.90-2.77Q202.44-2.77 202.01-2.77Q201.58-2.77 201.23-2.76L201.23-2.76L200.56-1.21Q200.47-1.00 200.37-0.74Q200.27-0.48 200.27-0.22L200.27-0.22Q200.27-0.14 200.29-0.09Q200.30-0.04 200.31-0.02L200.31-0.02L200.31 0L199.11 0L199.11-0.02Q199.22-0.13 199.38-0.42Q199.54-0.70 199.72-1.13L199.72-1.13L203.08-8.58L203.55-8.58L206.73-1.42Q206.84-1.17 206.96-0.93Q207.08-0.69 207.19-0.50Q207.29-0.32 207.38-0.19Q207.46-0.06 207.49-0.02L207.49-0.02L207.49 0ZM201.45-3.28L202.08-3.28Q202.42-3.28 202.78-3.28Q203.14-3.28 203.48-3.28Q203.82-3.29 204.14-3.29Q204.46-3.29 204.71-3.30L204.71-3.30L203.07-7.02L201.45-3.28ZM208.26 0L208.26-0.02Q208.29-0.15 208.32-0.33Q208.35-0.51 208.38-0.78Q208.40-1.05 208.41-1.42Q208.42-1.79 208.42-2.29L208.42-2.29L208.42-6.11Q208.42-6.60 208.41-6.98Q208.40-7.35 208.38-7.62Q208.35-7.89 208.32-8.07Q208.29-8.26 208.26-8.38L208.26-8.38L208.26-8.40L209.66-8.40L209.66-8.38Q209.63-8.26 209.59-8.07Q209.56-7.89 209.54-7.62Q209.52-7.35 209.50-6.98Q209.49-6.60 209.49-6.11L209.49-6.11L209.49-2.29Q209.49-1.79 209.50-1.42Q209.52-1.05 209.54-0.78Q209.56-0.51 209.59-0.33Q209.63-0.15 209.66-0.02L209.66-0.02L209.66 0L208.26 0ZM211.34-8.40L211.72-8.40L217.75-1.98L217.75-6.11Q217.75-6.60 217.74-6.98Q217.73-7.35 217.71-7.62Q217.68-7.89 217.65-8.07Q217.62-8.26 217.58-8.38L217.58-8.38L217.58-8.40L218.63-8.40L218.63-8.38Q218.59-8.26 218.56-8.07Q218.53-7.89 218.51-7.62Q218.48-7.35 218.47-6.98Q218.46-6.60 218.46-6.11L218.46-6.11L218.46 0.12L218.26 0.12L212.22-6.30L212.22-2.29Q212.22-1.79 212.23-1.42Q212.24-1.05 212.27-0.78Q212.29-0.51 212.32-0.33Q212.35-0.15 212.38-0.02L212.38-0.02L212.38 0L211.34 0L211.34-0.02Q211.38-0.15 211.41-0.33Q211.44-0.51 211.46-0.78Q211.49-1.05 211.50-1.42Q211.51-1.79 211.51-2.29L211.51-2.29L211.51-6.11Q211.51-6.60 211.50-6.98Q211.49-7.35 211.46-7.62Q211.44-7.89 211.41-8.07Q211.38-8.26 211.34-8.38L211.34-8.38L211.34-8.40ZM227.67 0L226.07 0L226.07-0.02Q226.08-0.05 226.08-0.11Q226.09-0.17 226.09-0.22L226.09-0.22Q226.09-0.40 226.04-0.62Q225.99-0.84 225.85-1.17L225.85-1.17L225.14-2.76Q224.81-2.77 224.27-2.77Q223.72-2.77 223.09-2.77L223.09-2.77Q222.63-2.77 222.20-2.77Q221.77-2.77 221.42-2.76L221.42-2.76L220.75-1.21Q220.66-1.00 220.56-0.74Q220.46-0.48 220.46-0.22L220.46-0.22Q220.46-0.14 220.47-0.09Q220.48-0.04 220.49-0.02L220.49-0.02L220.49 0L219.30 0L219.30-0.02Q219.40-0.13 219.56-0.42Q219.72-0.70 219.91-1.13L219.91-1.13L223.27-8.58L223.73-8.58L226.92-1.42Q227.03-1.17 227.15-0.93Q227.27-0.69 227.37-0.50Q227.48-0.32 227.56-0.19Q227.64-0.06 227.67-0.02L227.67-0.02L227.67 0ZM221.64-3.28L222.27-3.28Q222.61-3.28 222.97-3.28Q223.32-3.28 223.67-3.28Q224.01-3.29 224.33-3.29Q224.64-3.29 224.90-3.30L224.90-3.30L223.25-7.02L221.64-3.28ZM228.56-2.29L228.56-6.11Q228.56-6.60 228.55-6.98Q228.54-7.35 228.52-7.62Q228.49-7.89 228.46-8.07Q228.43-8.26 228.39-8.38L228.39-8.38L228.39-8.40Q228.51-8.40 228.64-8.40L228.64-8.40Q228.75-8.39 228.89-8.39Q229.03-8.39 229.17-8.39L229.17-8.39Q229.38-8.39 229.74-8.43Q230.10-8.47 230.67-8.47L230.67-8.47Q231.20-8.47 231.64-8.33Q232.09-8.20 232.42-7.94Q232.74-7.68 232.92-7.30Q233.11-6.93 233.11-6.45L233.11-6.45Q233.11-6.04 233.00-5.72Q232.89-5.40 232.68-5.17Q232.48-4.93 232.20-4.77Q231.91-4.61 231.57-4.51L231.57-4.51Q232.07-4.44 232.48-4.26Q232.89-4.08 233.19-3.81Q233.48-3.54 233.65-3.18Q233.81-2.82 233.81-2.38L233.81-2.38Q233.81-1.14 232.99-0.52Q232.18 0.09 230.55 0.09L230.55 0.09Q230.38 0.09 230.14 0.08Q229.91 0.06 229.67 0.05Q229.42 0.03 229.19 0.01Q228.96 0 228.78 0L228.78 0L228.39 0L228.39-0.02Q228.43-0.15 228.46-0.33Q228.49-0.51 228.52-0.78Q228.54-1.05 228.55-1.42Q228.56-1.79 228.56-2.29L228.56-2.29ZM230.71-4.15L230.71-4.15Q230.31-4.15 230.04-4.13Q229.78-4.10 229.63-4.07L229.63-4.07L229.63-2.29Q229.63-1.61 229.65-1.16Q229.68-0.71 229.72-0.43L229.72-0.43Q229.94-0.40 230.16-0.38Q230.38-0.36 230.52-0.36L230.52-0.36Q231.62-0.36 232.12-0.85Q232.63-1.34 232.63-2.35L232.63-2.35Q232.63-2.75 232.51-3.08Q232.39-3.41 232.15-3.65Q231.91-3.89 231.55-4.02Q231.19-4.15 230.71-4.15ZM229.63-7.96L229.63-4.59Q229.79-4.58 229.92-4.57Q230.05-4.57 230.20-4.57L230.20-4.57Q230.60-4.57 230.92-4.68Q231.25-4.80 231.48-5.03Q231.71-5.26 231.84-5.60Q231.97-5.94 231.97-6.40L231.97-6.40Q231.97-6.78 231.88-7.09Q231.79-7.40 231.60-7.62Q231.42-7.84 231.15-7.96Q230.88-8.07 230.53-8.07L230.53-8.07Q230.31-8.07 230.14-8.06Q229.97-8.04 229.86-8.02L229.86-8.02Q229.72-7.99 229.63-7.96L229.63-7.96ZM235.18 0L235.18-0.02Q235.21-0.15 235.24-0.33Q235.27-0.51 235.29-0.78Q235.32-1.05 235.33-1.42Q235.34-1.79 235.34-2.29L235.34-2.29L235.34-6.11Q235.34-6.60 235.33-6.98Q235.32-7.35 235.29-7.62Q235.27-7.89 235.24-8.07Q235.21-8.26 235.18-8.38L235.18-8.38L235.18-8.40L236.58-8.40L236.58-8.38Q236.54-8.26 236.51-8.07Q236.48-7.89 236.46-7.62Q236.44-7.35 236.42-6.98Q236.41-6.60 236.41-6.11L236.41-6.11L236.41-2.29Q236.41-1.79 236.42-1.42Q236.44-1.05 236.46-0.78Q236.48-0.51 236.51-0.33Q236.54-0.15 236.58-0.02L236.58-0.02L236.58 0L235.18 0ZM239.54-6.11L239.54-0.52Q240.23-0.52 240.81-0.57Q241.39-0.63 241.83-0.71L241.83-0.71Q242.33-0.79 242.75-0.90L242.75-0.90L242.58 0.05Q242.51 0.04 242.37 0.04Q242.23 0.03 242.05 0.02Q241.88 0.02 241.69 0.01Q241.50 0.01 241.33 0.01Q241.16 0.01 241.03 0.00Q240.90 0 240.84 0L240.84 0L238.31 0L238.31-0.02Q238.34-0.15 238.37-0.33Q238.41-0.51 238.43-0.78Q238.45-1.05 238.46-1.42Q238.48-1.79 238.48-2.29L238.48-2.29L238.48-6.11Q238.48-6.60 238.46-6.98Q238.45-7.35 238.43-7.62Q238.41-7.89 238.37-8.07Q238.34-8.26 238.31-8.38L238.31-8.38L238.31-8.40L239.71-8.40L239.71-8.38Q239.68-8.26 239.65-8.07Q239.61-7.89 239.59-7.62Q239.57-7.35 239.56-6.98Q239.54-6.60 239.54-6.11L239.54-6.11ZM243.88 0L243.88-0.02Q243.91-0.15 243.94-0.33Q243.97-0.51 244.00-0.78Q244.02-1.05 244.03-1.42Q244.04-1.79 244.04-2.29L244.04-2.29L244.04-6.11Q244.04-6.60 244.03-6.98Q244.02-7.35 244.00-7.62Q243.97-7.89 243.94-8.07Q243.91-8.26 243.88-8.38L243.88-8.38L243.88-8.40L245.28-8.40L245.28-8.38Q245.24-8.26 245.21-8.07Q245.18-7.89 245.16-7.62Q245.14-7.35 245.12-6.98Q245.11-6.60 245.11-6.11L245.11-6.11L245.11-2.29Q245.11-1.79 245.12-1.42Q245.14-1.05 245.16-0.78Q245.18-0.51 245.21-0.33Q245.24-0.15 245.28-0.02L245.28-0.02L245.28 0L243.88 0ZM249.22-2.29L249.22-7.89Q248.53-7.89 247.97-7.83Q247.41-7.76 247.01-7.69L247.01-7.69Q246.54-7.61 246.17-7.50L246.17-7.50L246.34-8.45Q246.41-8.44 246.55-8.44Q246.69-8.43 246.86-8.43Q247.04-8.42 247.23-8.42Q247.42-8.41 247.59-8.41Q247.76-8.41 247.89-8.41Q248.02-8.40 248.08-8.40L248.08-8.40L251.43-8.40Q251.48-8.40 251.62-8.41Q251.75-8.41 251.92-8.41Q252.09-8.41 252.28-8.42Q252.47-8.42 252.64-8.43Q252.81-8.43 252.96-8.44Q253.10-8.44 253.17-8.45L253.17-8.45L253.34-7.50Q252.96-7.61 252.49-7.69L252.49-7.69Q252.09-7.76 251.53-7.83Q250.97-7.89 250.28-7.89L250.28-7.89L250.28-2.29Q250.28-1.79 250.30-1.42Q250.31-1.05 250.33-0.78Q250.35-0.51 250.39-0.33Q250.42-0.15 250.45-0.02L250.45-0.02L250.45 0L249.05 0L249.05-0.02Q249.09-0.15 249.12-0.33Q249.15-0.51 249.17-0.78Q249.19-1.05 249.21-1.42Q249.22-1.79 249.22-2.29L249.22-2.29ZM260.03-7.46L257.60-4.03L257.60-2.29Q257.60-1.79 257.61-1.42Q257.62-1.05 257.64-0.78Q257.67-0.51 257.70-0.33Q257.73-0.15 257.77-0.02L257.77-0.02L257.77 0L256.36 0L256.36-0.02Q256.39-0.15 256.43-0.33Q256.46-0.51 256.48-0.78Q256.50-1.05 256.51-1.42Q256.53-1.79 256.53-2.29L256.53-2.29L256.53-3.91L253.91-7.48Q253.78-7.66 253.64-7.81Q253.51-7.96 253.39-8.08Q253.28-8.19 253.18-8.27Q253.09-8.34 253.04-8.38L253.04-8.38L253.04-8.40L254.81-8.40Q254.81-8.27 254.93-7.96Q255.04-7.65 255.34-7.24L255.34-7.24L257.26-4.61L259.14-7.35Q259.24-7.50 259.34-7.65Q259.44-7.80 259.52-7.95Q259.61-8.09 259.66-8.20Q259.71-8.32 259.71-8.40L259.71-8.40L260.85-8.40L260.85-8.38Q260.72-8.27 260.50-8.05Q260.29-7.83 260.03-7.46L260.03-7.46Z" transform="translate(-0.48046875, 8.578125)"></path></g></g></g></g><defs v-gra="od"></defs></svg>